<svg width="602" height="306" viewBox="0 0 602 306" fill="none" xmlns="http://www.w3.org/2000/svg">
<path d="M304 265.56C411.083 265.56 497.89 260.492 497.89 254.24C497.89 247.988 411.083 242.92 304 242.92C196.918 242.92 110.11 247.988 110.11 254.24C110.11 260.492 196.918 265.56 304 265.56Z" fill="#F5F5F5"/>
<path d="M408.48 123.83H414.07C415.462 123.83 416.59 122.702 416.59 121.31V111.02C416.59 109.628 415.462 108.5 414.07 108.5H408.48C407.088 108.5 405.96 109.628 405.96 111.02V121.31C405.96 122.702 407.088 123.83 408.48 123.83Z" fill="#263238"/>
<path opacity="0.4" d="M408.48 123.83H414.07C415.462 123.83 416.59 122.702 416.59 121.31V111.02C416.59 109.628 415.462 108.5 414.07 108.5H408.48C407.088 108.5 405.96 109.628 405.96 111.02V121.31C405.96 122.702 407.088 123.83 408.48 123.83Z" fill="white"/>
<path d="M406.35 115.38C405.569 116.187 404.647 116.844 403.63 117.32C403.342 117.429 403.09 117.617 402.904 117.863C402.718 118.109 402.606 118.403 402.58 118.71L402.31 122.48C402.295 122.702 402.326 122.925 402.401 123.135C402.475 123.345 402.592 123.538 402.744 123.701C402.895 123.864 403.079 123.994 403.283 124.083C403.487 124.173 403.708 124.219 403.93 124.22H406.41C406.671 124.221 406.928 124.159 407.16 124.04L409.74 122.7C410.004 122.564 410.225 122.357 410.378 122.103C410.532 121.849 410.612 121.557 410.61 121.26V116.53C410.61 116.1 410.44 115.688 410.136 115.384C409.832 115.081 409.42 114.91 408.99 114.91H407.49C407.063 114.911 406.654 115.08 406.35 115.38Z" fill="#263238"/>
<path opacity="0.3" d="M406.35 115.38C405.569 116.187 404.647 116.844 403.63 117.32C403.342 117.429 403.09 117.617 402.904 117.863C402.718 118.109 402.606 118.403 402.58 118.71L402.31 122.48C402.295 122.702 402.326 122.925 402.401 123.135C402.475 123.345 402.592 123.538 402.744 123.701C402.895 123.864 403.079 123.994 403.283 124.083C403.487 124.173 403.708 124.219 403.93 124.22H406.41C406.671 124.221 406.928 124.159 407.16 124.04L409.74 122.7C410.004 122.564 410.225 122.357 410.378 122.103C410.532 121.849 410.612 121.557 410.61 121.26V116.53C410.61 116.1 410.44 115.688 410.136 115.384C409.832 115.081 409.42 114.91 408.99 114.91H407.49C407.063 114.911 406.654 115.08 406.35 115.38Z" fill="white"/>
<path d="M207.12 143.77C206.846 143.773 206.573 143.736 206.31 143.66C205.93 143.554 205.575 143.374 205.265 143.13C204.955 142.887 204.696 142.585 204.503 142.241C204.31 141.897 204.186 141.519 204.139 141.128C204.093 140.736 204.123 140.34 204.23 139.96L219.29 86.33C219.901 84.1684 221.2 82.2649 222.99 80.908C224.78 79.551 226.964 78.8144 229.21 78.81H282.36C283.156 78.81 283.919 79.1261 284.481 79.6887C285.044 80.2513 285.36 81.0143 285.36 81.81C285.36 82.6056 285.044 83.3687 284.481 83.9313C283.919 84.4939 283.156 84.81 282.36 84.81H229.21C228.271 84.8129 227.359 85.1207 226.611 85.687C225.862 86.2533 225.318 87.0475 225.06 87.95L210 141.58C209.824 142.209 209.447 142.763 208.927 143.158C208.407 143.553 207.773 143.768 207.12 143.77Z" fill="#263238"/>
<path d="M166.171 141.22C165.589 141.225 165.019 141.06 164.53 140.747C164.04 140.434 163.652 139.985 163.413 139.456C163.173 138.926 163.093 138.338 163.181 137.764C163.27 137.19 163.523 136.653 163.911 136.22L197.741 97.4C198.891 96.0808 200.312 95.0234 201.905 94.2989C203.499 93.5745 205.23 93.1997 206.981 93.2H219.621C220.416 93.2 221.179 93.5161 221.742 94.0787C222.304 94.6413 222.621 95.4044 222.621 96.2C222.621 96.9957 222.304 97.7587 221.742 98.3213C221.179 98.8839 220.416 99.2 219.621 99.2H207.001C206.108 99.1985 205.225 99.3888 204.413 99.758C203.6 100.127 202.876 100.667 202.291 101.34L168.451 140.16C168.17 140.491 167.821 140.757 167.427 140.94C167.033 141.123 166.605 141.219 166.171 141.22Z" fill="#263238"/>
<path d="M428.32 187.83H440.52C454.07 187.83 465.05 203.01 465.05 221.73C465.05 240.45 454.05 255.64 440.52 255.64H428.32C414.77 255.64 403.79 240.46 403.79 221.73C403.79 203 414.77 187.83 428.32 187.83Z" fill="black"/>
<path d="M258.31 187.83H270.51C284.06 187.83 295.04 203.01 295.04 221.73C295.04 240.45 284.04 255.64 270.51 255.64H258.31C244.76 255.64 233.78 240.46 233.78 221.73C233.78 203 244.76 187.83 258.31 187.83Z" fill="black"/>
<path d="M131.76 206.51H144.3L156.5 221.34H213.18C214.467 223.454 216.288 225.192 218.459 226.38C220.63 227.568 223.075 228.165 225.55 228.11C234.37 228.11 236.31 222.25 236.31 222.25H269.19L273.19 228.11H331.72L340.78 221.73H389.54C389.54 221.73 392.07 228.11 401.1 228.11C403.658 228.149 406.186 227.55 408.456 226.368C410.725 225.186 412.665 223.458 414.1 221.34H427.62C430.6 221.348 433.515 220.462 435.987 218.797C438.46 217.132 440.376 214.765 441.49 212L456.76 174.06H131.76V206.51Z" fill="#263238"/>
<path d="M333.17 187.83H345.37C358.92 187.83 369.9 203.01 369.9 221.73C369.9 240.45 358.9 255.64 345.37 255.64H333.17C319.62 255.64 308.64 240.46 308.64 221.73C308.64 203 319.62 187.83 333.17 187.83Z" fill="black"/>
<path opacity="0.2" d="M329.33 190.23C340.65 190.23 349.83 204.34 349.83 221.73C349.83 239.12 340.65 253.23 329.33 253.23C318.01 253.23 308.84 239.13 308.84 221.73C308.84 204.33 318 190.23 329.33 190.23Z" fill="white"/>
<path opacity="0.2" d="M327.56 204.71C333.68 204.71 338.64 212.33 338.64 221.71C338.64 231.09 333.64 238.71 327.56 238.71C321.48 238.71 316.48 231.09 316.48 221.71C316.48 212.33 321.44 204.71 327.56 204.71Z" fill="white"/>
<path opacity="0.7" d="M331.73 213.22C334.79 213.22 337.27 217.03 337.27 221.73C337.27 226.43 334.79 230.25 331.73 230.25C328.67 230.25 326.19 226.43 326.19 221.73C326.19 217.03 328.67 213.22 331.73 213.22Z" fill="white"/>
<path d="M163.16 187.83H175.36C188.91 187.83 199.89 203.01 199.89 221.73C199.89 240.45 188.89 255.64 175.36 255.64H163.16C149.61 255.64 138.63 240.46 138.63 221.73C138.63 203 149.61 187.83 163.16 187.83Z" fill="black"/>
<path opacity="0.2" d="M159.32 190.23C170.64 190.23 179.82 204.34 179.82 221.73C179.82 239.12 170.64 253.23 159.32 253.23C148 253.23 138.83 239.13 138.83 221.73C138.83 204.33 148 190.23 159.32 190.23Z" fill="white"/>
<path opacity="0.2" d="M157.55 204.71C163.67 204.71 168.63 212.33 168.63 221.71C168.63 231.09 163.63 238.71 157.55 238.71C151.47 238.71 146.47 231.09 146.47 221.71C146.47 212.33 151.43 204.71 157.55 204.71Z" fill="white"/>
<path opacity="0.7" d="M161.78 213.22C164.7 213.22 167.06 216.86 167.06 221.34C167.06 225.82 164.7 229.46 161.78 229.46C158.86 229.46 156.5 225.82 156.5 221.34C156.5 216.86 158.86 213.22 161.78 213.22Z" fill="white"/>
<path d="M475.32 150.1V212.1H363.57L355.74 190C354.784 187.292 353.012 184.947 350.668 183.289C348.323 181.63 345.522 180.74 342.65 180.74H325.65C322.61 180.755 319.659 181.766 317.249 183.62C314.84 185.473 313.105 188.066 312.31 191L306.47 212.16H192.17L185.31 190.5C184.42 187.686 182.657 185.229 180.276 183.485C177.896 181.741 175.021 180.801 172.07 180.8H155.65C152.267 180.803 149.001 182.037 146.46 184.27C144.37 186.127 142.88 188.564 142.18 191.27L136.9 212.13H125.7V133C125.699 132.397 125.817 131.799 126.047 131.242C126.277 130.684 126.615 130.178 127.042 129.751C127.468 129.325 127.975 128.987 128.532 128.757C129.09 128.527 129.687 128.409 130.29 128.41H220.78C220.78 128.41 224.27 105.71 232.31 85.7C232.676 84.7858 233.259 83.9741 234.008 83.3348C234.757 82.6956 235.65 82.2478 236.61 82.03C241.68 80.9 254.14 79.13 282.38 79.13C359.48 79.13 375.27 83.89 375.27 83.89C397.85 100.06 418.55 125.83 418.55 125.83C420.39 126.17 422.174 126.523 423.9 126.89C433.851 128.857 443.649 131.53 453.22 134.89C459.362 137.016 465.283 139.732 470.9 143L471.43 143.32L471.61 143.43C472.742 144.138 473.675 145.121 474.324 146.287C474.973 147.454 475.316 148.765 475.32 150.1Z" fill="#99A6F0"/>
<path d="M482.37 178.53V211.88C482.367 213.642 481.666 215.331 480.419 216.576C479.172 217.821 477.482 218.52 475.72 218.52H370.58C366.91 218.52 364.63 215.52 363.58 212.13L355.74 190C354.671 186.968 352.582 184.402 349.83 182.74C349.83 179.08 365.96 171.85 369.63 171.85H396.48L400.67 180.96C401.252 182.216 402.18 183.279 403.346 184.025C404.511 184.771 405.866 185.168 407.25 185.17H453.25C454.892 185.164 456.472 184.546 457.682 183.436C458.891 182.326 459.643 180.805 459.79 179.17L460.41 171.86H475.7C476.577 171.857 477.445 172.028 478.256 172.362C479.066 172.697 479.803 173.188 480.422 173.808C481.042 174.428 481.533 175.164 481.868 175.974C482.202 176.785 482.373 177.653 482.37 178.53Z" fill="#263238"/>
<path d="M413.431 126.37H403.621L383.931 123.83H349.831L338.831 126.37H309.821C309.821 126.37 305.361 100.05 297.561 84.22C297.561 84.22 342.561 82.71 374.911 87.28C374.911 87.28 391.151 97.27 413.431 126.37Z" fill="#263238"/>
<path d="M300.5 126.37H254.74C254.079 126.371 253.425 126.234 252.821 125.967C252.216 125.7 251.674 125.309 251.23 124.82L248 121.26C247.559 120.771 247.021 120.381 246.42 120.114C245.818 119.847 245.168 119.709 244.51 119.71H226.3C229.17 102.89 233.64 93.32 235.62 87.29C235.899 86.424 236.428 85.6597 237.139 85.0923C237.851 84.525 238.713 84.1798 239.62 84.1C242.22 83.91 244.84 83.75 247.42 83.63L250.64 83.49C272.01 82.69 291.35 83.99 291.35 83.99C293.99 88.7 296.97 104.64 298.79 115.58C299.85 121.79 300.5 126.37 300.5 126.37Z" fill="#263238"/>
<path opacity="0.2" d="M482.37 178.53V211.88C482.367 213.642 481.666 215.331 480.419 216.576C479.172 217.821 477.482 218.52 475.72 218.52H370.58C366.91 218.52 364.63 215.52 363.58 212.13L355.74 190C354.671 186.968 352.582 184.402 349.83 182.74C349.83 179.08 365.96 171.85 369.63 171.85H396.48L400.67 180.96C401.252 182.216 402.18 183.279 403.346 184.025C404.511 184.771 405.866 185.168 407.25 185.17H453.25C454.892 185.164 456.472 184.546 457.682 183.436C458.891 182.326 459.643 180.805 459.79 179.17L460.41 171.86H475.7C476.577 171.857 477.445 172.028 478.256 172.362C479.066 172.697 479.803 173.188 480.422 173.808C481.042 174.428 481.533 175.164 481.868 175.974C482.202 176.785 482.373 177.653 482.37 178.53Z" fill="white"/>
<path d="M373.15 172.76L365.15 172.83C364.568 172.83 364.01 172.6 363.598 172.189C363.186 171.779 362.953 171.222 362.95 170.64V154.38C362.953 153.447 363.325 152.553 363.984 151.894C364.644 151.234 365.537 150.863 366.47 150.86H375C374.067 150.863 373.174 151.234 372.514 151.894C371.855 152.553 371.483 153.447 371.48 154.38V170.64C371.484 171.129 371.65 171.602 371.952 171.986C372.254 172.37 372.676 172.642 373.15 172.76Z" fill="#99A6F0"/>
<path d="M371.51 170.63V154.38C371.51 153.446 371.881 152.551 372.541 151.891C373.201 151.231 374.096 150.86 375.03 150.86H384.65C385.331 150.861 385.997 151.058 386.569 151.429C387.14 151.8 387.592 152.328 387.87 152.95L395.58 170.1C395.703 170.375 395.756 170.677 395.733 170.978C395.71 171.279 395.612 171.57 395.448 171.823C395.284 172.077 395.059 172.285 394.794 172.43C394.529 172.574 394.232 172.65 393.93 172.65L373.71 172.83C373.421 172.83 373.135 172.773 372.868 172.663C372.601 172.552 372.358 172.39 372.154 172.186C371.95 171.981 371.788 171.739 371.677 171.472C371.567 171.205 371.51 170.919 371.51 170.63Z" fill="#99A6F0"/>
<path d="M472.471 150.86H464.701C464.017 150.86 463.358 151.115 462.853 151.576C462.348 152.036 462.033 152.669 461.971 153.35L460.411 170.52C460.393 170.788 460.43 171.058 460.519 171.311C460.607 171.565 460.747 171.799 460.928 171.997C461.109 172.196 461.328 172.357 461.573 172.469C461.817 172.581 462.082 172.643 462.351 172.65H474.831V154.36C474.831 153.824 474.707 153.296 474.467 152.817C474.228 152.337 473.88 151.921 473.451 151.6L472.471 150.86Z" fill="#99A6F0"/>
<path opacity="0.7" d="M371.51 170.63V154.38C371.51 153.446 371.881 152.551 372.541 151.891C373.201 151.231 374.096 150.86 375.03 150.86H384.65C385.331 150.861 385.997 151.058 386.569 151.429C387.14 151.8 387.592 152.328 387.87 152.95L395.58 170.1C395.703 170.375 395.756 170.677 395.733 170.978C395.71 171.279 395.612 171.57 395.448 171.823C395.284 172.077 395.059 172.285 394.794 172.43C394.529 172.574 394.232 172.65 393.93 172.65L373.71 172.83C373.421 172.83 373.135 172.773 372.868 172.663C372.601 172.552 372.358 172.39 372.154 172.186C371.95 171.981 371.788 171.739 371.677 171.472C371.567 171.205 371.51 170.919 371.51 170.63Z" fill="white"/>
<path opacity="0.7" d="M472.471 150.86H464.701C464.017 150.86 463.358 151.115 462.853 151.576C462.348 152.036 462.033 152.669 461.971 153.35L460.411 170.52C460.393 170.788 460.43 171.058 460.519 171.311C460.607 171.565 460.747 171.799 460.928 171.997C461.109 172.196 461.328 172.357 461.573 172.469C461.817 172.581 462.082 172.643 462.351 172.65H474.831V154.36C474.831 153.824 474.707 153.296 474.467 152.817C474.228 152.337 473.88 151.921 473.451 151.6L472.471 150.86Z" fill="white"/>
<path d="M390.51 164.36C390.51 167.62 388.38 170.26 385.74 170.26C383.1 170.26 380.97 167.62 380.97 164.36C380.97 161.1 383.1 158.47 385.74 158.47C388.38 158.47 390.51 161.11 390.51 164.36Z" fill="white"/>
<path d="M377.53 160.73C379.087 160.73 380.35 159.212 380.35 157.34C380.35 155.468 379.087 153.95 377.53 153.95C375.973 153.95 374.71 155.468 374.71 157.34C374.71 159.212 375.973 160.73 377.53 160.73Z" fill="white"/>
<path d="M466.621 170.26C469.255 170.26 471.391 167.618 471.391 164.36C471.391 161.102 469.255 158.46 466.621 158.46C463.986 158.46 461.851 161.102 461.851 164.36C461.851 167.618 463.986 170.26 466.621 170.26Z" fill="white"/>
<path d="M474.55 157.34C474.451 157.876 474.201 158.374 473.83 158.773C473.459 159.173 472.981 159.459 472.454 159.597C471.926 159.735 471.37 159.719 470.85 159.553C470.331 159.386 469.87 159.075 469.521 158.655C469.172 158.236 468.95 157.726 468.881 157.185C468.811 156.644 468.898 156.094 469.129 155.6C469.361 155.107 469.729 154.689 470.19 154.397C470.65 154.105 471.184 153.95 471.73 153.95C472.552 154.029 473.31 154.429 473.838 155.064C474.366 155.699 474.622 156.517 474.55 157.34Z" fill="white"/>
<path opacity="0.2" d="M373.15 172.76L365.15 172.83C364.568 172.83 364.01 172.6 363.598 172.189C363.186 171.779 362.953 171.222 362.95 170.64V154.38C362.953 153.447 363.325 152.553 363.984 151.894C364.644 151.234 365.537 150.863 366.47 150.86H375C374.067 150.863 373.174 151.234 372.514 151.894C371.855 152.553 371.483 153.447 371.48 154.38V170.64C371.485 171.128 371.652 171.601 371.954 171.985C372.256 172.368 372.677 172.641 373.15 172.76Z" fill="white"/>
<path d="M477.68 154.36V172.64H474.83V154.36C474.828 153.825 474.702 153.297 474.463 152.819C474.223 152.34 473.877 151.923 473.45 151.6L472.45 150.86H475.3L476.3 151.6C476.729 151.921 477.076 152.338 477.316 152.817C477.555 153.296 477.68 153.824 477.68 154.36Z" fill="#99A6F0"/>
<path opacity="0.2" d="M477.68 154.36V172.64H474.83V154.36C474.828 153.825 474.702 153.297 474.463 152.819C474.223 152.34 473.877 151.923 473.45 151.6L472.45 150.86H475.3L476.3 151.6C476.73 151.92 477.079 152.336 477.319 152.816C477.559 153.295 477.683 153.824 477.68 154.36Z" fill="white"/>
<path opacity="0.4" d="M366.47 150.86H375C374.067 150.863 373.173 151.234 372.514 151.894C371.854 152.553 371.483 153.447 371.48 154.38V161.75H363V154.38C363.002 153.456 363.367 152.569 364.016 151.911C364.665 151.253 365.546 150.876 366.47 150.86Z" fill="black"/>
<path opacity="0.4" d="M477.68 154.36V161.75H474.83V154.36C474.828 153.825 474.702 153.297 474.463 152.819C474.223 152.34 473.877 151.923 473.45 151.6L472.45 150.86H475.3L476.3 151.6C476.73 151.92 477.079 152.336 477.319 152.816C477.559 153.295 477.683 153.824 477.68 154.36Z" fill="black"/>
<path opacity="0.4" d="M458.25 152.42L456 178.87C455.94 179.561 455.623 180.203 455.112 180.672C454.601 181.14 453.933 181.4 453.24 181.4H407.24C406.583 181.402 405.939 181.214 405.386 180.859C404.832 180.505 404.393 179.998 404.12 179.4L391.54 152.08C391.492 151.983 391.461 151.878 391.45 151.77C391.431 151.628 391.443 151.484 391.485 151.347C391.527 151.211 391.598 151.084 391.693 150.977C391.787 150.87 391.904 150.785 392.035 150.726C392.165 150.668 392.307 150.639 392.45 150.64H456.6C456.828 150.638 457.055 150.683 457.265 150.774C457.475 150.864 457.663 150.997 457.819 151.165C457.974 151.333 458.093 151.531 458.167 151.747C458.241 151.963 458.269 152.192 458.25 152.42Z" fill="black"/>
<path d="M455.81 153.55L453.57 180C453.54 180.511 453.359 181.002 453.05 181.41H407.25C406.593 181.412 405.949 181.224 405.396 180.869C404.842 180.515 404.403 180.008 404.13 179.41L391.55 152.09C391.502 151.993 391.471 151.888 391.46 151.78H454.17C454.396 151.781 454.62 151.828 454.827 151.919C455.035 152.01 455.221 152.143 455.375 152.309C455.528 152.475 455.647 152.67 455.721 152.884C455.796 153.098 455.826 153.324 455.81 153.55Z" fill="#263238"/>
<path opacity="0.2" d="M455.81 153.55L454.87 164.72L454.71 166.59L453.57 180C453.54 180.511 453.359 181.002 453.05 181.41H407.25C406.593 181.412 405.949 181.224 405.396 180.869C404.842 180.515 404.403 180.008 404.13 179.41L398.22 166.6L397.37 164.73L391.55 152.09C391.502 151.993 391.471 151.888 391.46 151.78H454.17C454.396 151.781 454.62 151.828 454.827 151.919C455.035 152.01 455.221 152.143 455.375 152.309C455.528 152.475 455.647 152.67 455.721 152.884C455.796 153.098 455.826 153.324 455.81 153.55Z" fill="white"/>
<path d="M400.09 153.11L401.22 151.77H395.66L396.79 153.11H400.09Z" fill="#263238"/>
<path d="M411.47 153.11L412.6 151.77H407.04L408.17 153.11H411.47Z" fill="#263238"/>
<path d="M422.85 153.11L423.98 151.77H418.42L419.55 153.11H422.85Z" fill="#263238"/>
<path d="M434.23 153.11L435.36 151.77H429.8L430.93 153.11H434.23Z" fill="#263238"/>
<path d="M445.62 153.11L446.74 151.77H441.19L442.31 153.11H445.62Z" fill="#263238"/>
<path d="M455.78 153.11C455.712 152.733 455.513 152.392 455.219 152.147C454.925 151.902 454.553 151.769 454.17 151.77H452.57L453.7 153.11H455.78Z" fill="#263238"/>
<path d="M396.05 153.59L394.51 151.77H391.46C391.471 151.878 391.502 151.983 391.55 152.08L393.14 155.54H394.4L396.05 153.59Z" fill="#263238"/>
<path d="M402.48 155.55H405.78L407.43 153.59L405.89 151.77H402.36L400.83 153.59L402.48 155.55Z" fill="#263238"/>
<path d="M413.86 155.55H417.16L418.81 153.59L417.28 151.77H413.74L412.21 153.59L413.86 155.55Z" fill="#263238"/>
<path d="M425.24 155.55H428.54L430.19 153.59L428.66 151.77H425.13L423.59 153.59L425.24 155.55Z" fill="#263238"/>
<path d="M436.62 155.55H439.92L441.57 153.59L440.04 151.77H436.51L434.97 153.59L436.62 155.55Z" fill="#263238"/>
<path d="M448.01 155.55H451.31L452.96 153.59L451.42 151.77H447.89L446.36 153.59L448.01 155.55Z" fill="#263238"/>
<path d="M400.09 154.07H396.79L395.13 156.02L396.79 157.98H400.09L401.74 156.02L400.09 154.07Z" fill="#263238"/>
<path d="M411.471 157.98L413.121 156.02L411.471 154.07H408.171L406.521 156.02L408.171 157.98H411.471Z" fill="#263238"/>
<path d="M422.85 157.98L424.5 156.02L422.85 154.07H419.55L417.9 156.02L419.55 157.98H422.85Z" fill="#263238"/>
<path d="M434.23 157.98L435.88 156.02L434.23 154.07H430.93L429.28 156.02L430.93 157.98H434.23Z" fill="#263238"/>
<path d="M445.62 157.98L447.27 156.02L445.62 154.07H442.31L440.66 156.02L442.31 157.98H445.62Z" fill="#263238"/>
<path d="M452.05 156.02L453.7 157.98H455.44L455.76 154.07H453.7L452.05 156.02Z" fill="#263238"/>
<path d="M394.4 156.51H393.58L395.04 159.66L396.05 158.46L394.4 156.51Z" fill="#263238"/>
<path d="M405.78 160.42L407.43 158.46L405.78 156.51H402.48L400.83 158.46L402.48 160.42H405.78Z" fill="#263238"/>
<path d="M413.86 160.42H417.16L418.81 158.46L417.16 156.51H413.86L412.21 158.46L413.86 160.42Z" fill="#263238"/>
<path d="M425.24 160.42H428.54L430.19 158.46L428.54 156.51H425.24L423.59 158.46L425.24 160.42Z" fill="#263238"/>
<path d="M436.62 160.42H439.92L441.57 158.46L439.92 156.51H436.62L434.97 158.46L436.62 160.42Z" fill="#263238"/>
<path d="M448.01 160.42H451.31L452.96 158.46L451.31 156.51H448.01L446.36 158.46L448.01 160.42Z" fill="#263238"/>
<path d="M400.09 162.85L401.74 160.9L400.09 158.94H396.79L395.44 160.54L396.17 162.12L396.79 162.85H400.09Z" fill="#263238"/>
<path d="M408.171 158.94L406.521 160.9L408.171 162.85H411.471L413.121 160.9L411.471 158.94H408.171Z" fill="#263238"/>
<path d="M419.55 158.94L417.9 160.9L419.55 162.85H422.85L424.5 160.9L422.85 158.94H419.55Z" fill="#263238"/>
<path d="M430.93 158.94L429.28 160.9L430.93 162.85H434.23L435.88 160.9L434.23 158.94H430.93Z" fill="#263238"/>
<path d="M445.62 158.94H442.31L440.66 160.9L442.31 162.85H445.62L447.27 160.9L445.62 158.94Z" fill="#263238"/>
<path d="M452.05 160.9L453.7 162.85H455.02L455.35 158.94H453.7L452.05 160.9Z" fill="#263238"/>
<path d="M405.78 165.29L407.43 163.33L405.78 161.38H402.48L400.83 163.33L402.48 165.29H405.78Z" fill="#263238"/>
<path d="M413.86 161.38L412.21 163.33L413.86 165.29H417.16L418.81 163.33L417.16 161.38H413.86Z" fill="#263238"/>
<path d="M425.24 161.38L423.59 163.33L425.24 165.29H428.54L430.19 163.33L428.54 161.38H425.24Z" fill="#263238"/>
<path d="M436.62 161.38L434.97 163.33L436.62 165.29H439.92L441.57 163.33L439.92 161.38H436.62Z" fill="#263238"/>
<path d="M448.01 161.38L446.36 163.33L448.01 165.29H451.31L452.96 163.33L451.31 161.38H448.01Z" fill="#263238"/>
<path d="M401.74 165.77L400.09 163.82H396.95L398.75 167.73H400.09L401.74 165.77Z" fill="#263238"/>
<path d="M408.171 167.73H411.471L413.121 165.77L411.471 163.82H408.171L406.521 165.77L408.171 167.73Z" fill="#263238"/>
<path d="M419.55 163.82L417.9 165.77L419.55 167.73H422.85L424.5 165.77L422.85 163.82H419.55Z" fill="#263238"/>
<path d="M434.23 167.73L435.88 165.77L434.23 163.82H430.93L429.28 165.77L430.93 167.73H434.23Z" fill="#263238"/>
<path d="M445.62 167.73L447.27 165.77L445.62 163.82H442.31L440.66 165.77L442.31 167.73H445.62Z" fill="#263238"/>
<path d="M452.05 165.77L453.7 167.73H454.61L454.94 163.82H453.7L452.05 165.77Z" fill="#263238"/>
<path d="M405.78 166.25H402.48L400.83 168.21L402.48 170.16H405.78L407.43 168.21L405.78 166.25Z" fill="#263238"/>
<path d="M417.16 170.16L418.81 168.21L417.16 166.25H413.86L412.21 168.21L413.86 170.16H417.16Z" fill="#263238"/>
<path d="M428.54 170.16L430.19 168.21L428.54 166.25H425.24L423.59 168.21L425.24 170.16H428.54Z" fill="#263238"/>
<path d="M439.92 170.16L441.57 168.21L439.92 166.25H436.62L434.97 168.21L436.62 170.16H439.92Z" fill="#263238"/>
<path d="M448.01 166.25L446.36 168.21L448.01 170.16H451.31L452.96 168.21L451.31 166.25H448.01Z" fill="#263238"/>
<path d="M400.09 168.69H399.19L400.67 171.9L401.74 170.64L400.09 168.69Z" fill="#263238"/>
<path d="M411.471 172.6L413.121 170.64L411.471 168.69H408.171L406.521 170.64L408.171 172.6H411.471Z" fill="#263238"/>
<path d="M422.85 172.6L424.5 170.64L422.85 168.69H419.55L417.9 170.64L419.55 172.6H422.85Z" fill="#263238"/>
<path d="M434.23 172.6L435.88 170.64L434.23 168.69H430.93L429.28 170.64L430.93 172.6H434.23Z" fill="#263238"/>
<path d="M445.62 172.6L447.27 170.64L445.62 168.69H442.31L440.66 170.64L442.31 172.6H445.62Z" fill="#263238"/>
<path d="M452.05 170.64L453.7 172.6H454.2L454.53 168.69H453.7L452.05 170.64Z" fill="#263238"/>
<path d="M405.78 175.04L407.43 173.08L405.78 171.13H402.48L401.08 172.78L401.68 174.09L402.48 175.04H405.78Z" fill="#263238"/>
<path d="M413.86 175.04H417.16L418.81 173.08L417.16 171.13H413.86L412.21 173.08L413.86 175.04Z" fill="#263238"/>
<path d="M428.54 175.04L430.19 173.08L428.54 171.13H425.24L423.59 173.08L425.24 175.04H428.54Z" fill="#263238"/>
<path d="M439.92 175.04L441.57 173.08L439.92 171.13H436.62L434.97 173.08L436.62 175.04H439.92Z" fill="#263238"/>
<path d="M448.01 171.13L446.36 173.08L448.01 175.04H451.31L452.96 173.08L451.31 171.13H448.01Z" fill="#263238"/>
<path d="M411.471 173.56H408.171L406.521 175.52L408.171 177.47H411.471L413.121 175.52L411.471 173.56Z" fill="#263238"/>
<path d="M422.85 173.56H419.55L417.9 175.52L419.55 177.47H422.85L424.5 175.52L422.85 173.56Z" fill="#263238"/>
<path d="M434.23 173.56H430.93L429.28 175.52L430.93 177.47H434.23L435.88 175.52L434.23 173.56Z" fill="#263238"/>
<path d="M445.62 173.56H442.31L440.66 175.52L442.31 177.47H445.62L447.27 175.52L445.62 173.56Z" fill="#263238"/>
<path d="M452.05 175.52L453.7 177.47H453.79L454.12 173.56H453.7L452.05 175.52Z" fill="#263238"/>
<path d="M407.431 178L405.781 176H402.561L404.131 179.4C404.211 179.579 404.308 179.749 404.421 179.91H405.781L407.431 178Z" fill="#263238"/>
<path d="M413.86 176L412.21 177.95L413.86 179.91H417.16L418.81 177.95L417.16 176H413.86Z" fill="#263238"/>
<path d="M425.24 176L423.59 177.95L425.24 179.91H428.54L430.19 177.95L428.54 176H425.24Z" fill="#263238"/>
<path d="M436.62 176L434.97 177.95L436.62 179.91H439.92L441.57 177.95L439.92 176H436.62Z" fill="#263238"/>
<path d="M451.31 176H448.01L446.36 177.95L448.01 179.91H451.31L452.96 177.95L451.31 176Z" fill="#263238"/>
<path d="M411.471 178.44H408.171L406.521 180.39L407.371 181.4H412.271L413.121 180.39L411.471 178.44Z" fill="#263238"/>
<path d="M422.85 178.44H419.55L417.9 180.39L418.75 181.4H423.65L424.5 180.39L422.85 178.44Z" fill="#263238"/>
<path d="M434.23 178.44H430.93L429.28 180.39L430.13 181.4H435.03L435.88 180.39L434.23 178.44Z" fill="#263238"/>
<path d="M445.62 178.44H442.31L440.66 180.39L441.52 181.4H446.41L447.27 180.39L445.62 178.44Z" fill="#263238"/>
<path d="M453.7 178.43L452.05 180.43L452.9 181.43H453.05C453.359 181.022 453.54 180.531 453.57 180.02L453.71 178.46L453.7 178.43Z" fill="#263238"/>
<path d="M405.42 180.87C405.613 180.99 405.817 181.09 406.03 181.17L405.78 180.87H405.42Z" fill="#263238"/>
<path d="M413.86 180.87L413.41 181.4H417.61L417.16 180.87H413.86Z" fill="#263238"/>
<path d="M425.24 180.87L424.79 181.4H428.99L428.54 180.87H425.24Z" fill="#263238"/>
<path d="M436.62 180.87L436.18 181.4H440.37L439.92 180.87H436.62Z" fill="#263238"/>
<path d="M448.011 180.87L447.561 181.4H451.751L451.311 180.87H448.011Z" fill="#263238"/>
<path d="M454.87 164.72L454.71 166.59H398.22L397.37 164.72H454.87Z" fill="#263238"/>
<path opacity="0.2" d="M454.87 164.72L454.71 166.59H398.22L397.37 164.72H454.87Z" fill="white"/>
<path d="M445.77 162.47H408.8L406.01 165.77L408.8 169.07H445.77L448.56 165.77L445.77 162.47Z" fill="#263238"/>
<path opacity="0.2" d="M445.77 162.47H408.8L406.01 165.77L408.8 169.07H445.77L448.56 165.77L445.77 162.47Z" fill="white"/>
<path opacity="0.2" d="M450.8 196.18H411.26V214.76H450.8V196.18Z" fill="white"/>
<path d="M391.32 209.74H382.19C381.421 209.74 380.683 209.434 380.139 208.891C379.596 208.347 379.29 207.609 379.29 206.84V189.29C379.29 188.521 379.596 187.783 380.139 187.239C380.683 186.696 381.421 186.39 382.19 186.39H391.74C392.29 186.391 392.829 186.547 393.294 186.841C393.76 187.134 394.133 187.554 394.37 188.05L396.95 193.54C397.228 194.147 397.294 194.83 397.14 195.48L394.14 207.54C393.985 208.17 393.623 208.73 393.111 209.129C392.6 209.528 391.969 209.743 391.32 209.74Z" fill="#263238"/>
<path opacity="0.4" d="M390.51 197.27C390.51 200.27 388.51 202.71 386.11 202.71C383.71 202.71 381.71 200.27 381.71 197.27C381.71 194.27 383.71 191.82 386.11 191.82C388.51 191.82 390.51 194.26 390.51 197.27Z" fill="white"/>
<path d="M466.07 209.74H475.2C475.969 209.74 476.707 209.434 477.251 208.891C477.795 208.347 478.1 207.609 478.1 206.84V189.29C478.1 188.521 477.795 187.783 477.251 187.239C476.707 186.696 475.969 186.39 475.2 186.39H465.65C465.1 186.391 464.561 186.547 464.096 186.841C463.63 187.134 463.258 187.554 463.02 188.05L460.44 193.54C460.163 194.147 460.096 194.83 460.25 195.48L463.25 207.54C463.405 208.17 463.767 208.73 464.279 209.129C464.79 209.528 465.421 209.743 466.07 209.74Z" fill="#263238"/>
<path opacity="0.4" d="M471.39 197.27C471.39 200.27 469.39 202.71 466.99 202.71C464.59 202.71 462.59 200.27 462.59 197.27C462.59 194.27 464.59 191.82 466.99 191.82C469.39 191.82 471.39 194.26 471.39 197.27Z" fill="white"/>
<path d="M146.46 184.24C144.37 186.097 142.88 188.534 142.18 191.24L136.9 212.13H136.75C136.391 212.903 135.817 213.557 135.098 214.014C134.378 214.472 133.543 214.713 132.69 214.71H124.35C123.762 214.71 123.179 214.594 122.636 214.369C122.092 214.144 121.598 213.814 121.182 213.398C120.766 212.982 120.436 212.488 120.211 211.944C119.986 211.401 119.87 210.818 119.87 210.23V175.56C119.869 174.592 120.154 173.646 120.687 172.839C121.22 172.031 121.98 171.399 122.87 171.02L124.38 171.08H135.78C136.708 171.081 137.619 171.325 138.423 171.788C139.226 172.251 139.895 172.918 140.36 173.72L146.46 184.24Z" fill="#263238"/>
<path opacity="0.2" d="M146.46 184.24C144.37 186.097 142.88 188.534 142.18 191.24L136.9 212.13H136.75C136.391 212.903 135.817 213.557 135.098 214.014C134.378 214.472 133.543 214.713 132.69 214.71H124.35C123.762 214.71 123.179 214.594 122.636 214.369C122.092 214.144 121.598 213.814 121.182 213.398C120.766 212.982 120.436 212.488 120.211 211.944C119.986 211.401 119.87 210.818 119.87 210.23V175.56C119.869 174.592 120.154 173.646 120.687 172.839C121.22 172.031 121.98 171.399 122.87 171.02L124.38 171.08H135.78C136.708 171.081 137.619 171.325 138.423 171.788C139.226 172.251 139.895 172.918 140.36 173.72L146.46 184.24Z" fill="white"/>
<path d="M133.17 144V171H122.84V145.48C122.836 145.024 122.922 144.573 123.094 144.151C123.266 143.728 123.519 143.345 123.84 143.021C124.161 142.698 124.542 142.441 124.963 142.265C125.383 142.09 125.834 142 126.29 142H131.21C131.733 142.01 132.232 142.226 132.598 142.6C132.965 142.974 133.17 143.476 133.17 144Z" fill="#99A6F0"/>
<path opacity="0.2" d="M133.17 144V171H122.84V145.48C122.836 145.024 122.922 144.573 123.094 144.151C123.266 143.728 123.519 143.345 123.84 143.021C124.161 142.698 124.542 142.441 124.963 142.265C125.383 142.09 125.834 142 126.29 142H131.21C131.733 142.01 132.232 142.226 132.598 142.6C132.965 142.974 133.17 143.476 133.17 144Z" fill="white"/>
<path opacity="0.4" d="M133.17 144V152.32H122.84V145.49C122.835 145.034 122.92 144.581 123.091 144.157C123.262 143.734 123.515 143.349 123.836 143.025C124.157 142.7 124.539 142.442 124.961 142.266C125.382 142.091 125.834 142 126.29 142H131.21C131.734 142.01 132.232 142.226 132.599 142.6C132.965 142.974 133.17 143.476 133.17 144Z" fill="black"/>
<path opacity="0.7" d="M133.17 152.31H122.84V161.85H133.17V152.31Z" fill="white"/>
<path opacity="0.2" d="M299.58 205.21H226.82C225.765 205.209 224.724 204.966 223.778 204.5C222.831 204.033 222.004 203.356 221.36 202.52L219.88 200.61C219.103 199.602 218.621 198.397 218.49 197.13C214.49 158.97 218.64 130.47 218.68 130.19C218.702 130.06 218.774 129.943 218.881 129.865C218.987 129.787 219.119 129.753 219.25 129.77C219.316 129.778 219.379 129.8 219.436 129.834C219.493 129.867 219.543 129.912 219.582 129.965C219.621 130.019 219.649 130.079 219.664 130.144C219.68 130.208 219.682 130.275 219.67 130.34C219.67 130.62 215.49 159 219.48 197.02C219.592 198.113 220.008 199.152 220.68 200.02L222.15 201.93C222.702 202.643 223.41 203.221 224.219 203.62C225.029 204.018 225.918 204.227 226.82 204.23H299.58C300.363 204.227 301.123 203.971 301.749 203.501C302.374 203.031 302.83 202.371 303.05 201.62L309.57 179C310.52 175.752 312.493 172.898 315.196 170.862C317.899 168.826 321.187 167.717 324.57 167.7H348.04C350.063 167.703 352.046 168.263 353.77 169.32L358.4 172.16C358.457 172.194 358.506 172.239 358.545 172.292C358.584 172.345 358.612 172.406 358.628 172.47C358.644 172.534 358.647 172.6 358.637 172.666C358.627 172.731 358.604 172.794 358.57 172.85C358.536 172.906 358.491 172.956 358.438 172.995C358.385 173.034 358.325 173.062 358.261 173.078C358.196 173.094 358.13 173.097 358.065 173.087C357.999 173.077 357.937 173.054 357.88 173.02L353.25 170.17C351.682 169.21 349.879 168.702 348.04 168.7H324.59C321.419 168.713 318.338 169.749 315.804 171.656C313.27 173.562 311.421 176.237 310.53 179.28L304 201.88C303.719 202.836 303.137 203.676 302.341 204.276C301.545 204.876 300.577 205.203 299.58 205.21Z" fill="black"/>
<path opacity="0.2" d="M300.51 199.38C300.386 199.381 300.265 199.335 300.173 199.252C300.081 199.168 300.022 199.054 300.01 198.93C296.25 164.33 300.01 129.77 300.01 129.42C300.027 129.29 300.094 129.172 300.197 129.09C300.299 129.008 300.429 128.969 300.56 128.98C300.626 128.986 300.69 129.005 300.748 129.037C300.806 129.068 300.858 129.11 300.9 129.161C300.942 129.212 300.973 129.271 300.992 129.335C301.011 129.398 301.017 129.464 301.01 129.53C301.01 129.88 297.26 164.34 301.01 198.82C301.024 198.951 300.986 199.083 300.903 199.186C300.821 199.289 300.701 199.355 300.57 199.37L300.51 199.38Z" fill="black"/>
<path opacity="0.2" d="M250.67 83.49C247.591 95.3856 245.392 107.492 244.09 119.71H239.83C241.505 107.517 244.051 95.4592 247.45 83.63L250.67 83.49Z" fill="white"/>
<path opacity="0.2" d="M241.73 118.7C241.664 118.694 241.6 118.675 241.542 118.643C241.484 118.612 241.432 118.57 241.39 118.519C241.349 118.468 241.317 118.409 241.298 118.345C241.279 118.282 241.273 118.216 241.28 118.15C242.96 102.15 247.83 84.03 247.88 83.85C247.915 83.7231 247.999 83.6151 248.113 83.5496C248.227 83.4841 248.363 83.4663 248.49 83.5C248.554 83.5162 248.613 83.545 248.666 83.5847C248.718 83.6243 248.761 83.6741 248.794 83.731C248.827 83.7879 248.848 83.8507 248.856 83.9158C248.863 83.9809 248.858 84.047 248.84 84.11C248.84 84.29 243.95 102.31 242.28 118.25C242.265 118.382 242.199 118.503 242.096 118.587C241.994 118.671 241.862 118.711 241.73 118.7Z" fill="black"/>
<path opacity="0.2" d="M239.86 199.38C239.731 199.38 239.607 199.33 239.514 199.241C239.421 199.151 239.366 199.029 239.36 198.9C237.987 173.1 238.612 147.233 241.23 121.53C241.238 121.464 241.258 121.4 241.291 121.343C241.323 121.285 241.366 121.234 241.418 121.193C241.47 121.152 241.53 121.122 241.594 121.104C241.658 121.086 241.725 121.082 241.79 121.09C241.856 121.097 241.919 121.118 241.977 121.15C242.034 121.183 242.084 121.226 242.125 121.279C242.165 121.331 242.194 121.391 242.21 121.455C242.227 121.518 242.23 121.585 242.22 121.65C239.615 147.297 238.993 173.107 240.36 198.85C240.366 198.984 240.319 199.114 240.229 199.213C240.139 199.312 240.014 199.372 239.88 199.38H239.86Z" fill="black"/>
<path opacity="0.2" d="M471.61 143.28H455.35C452.67 140.78 447 139.52 441.18 139.52H393.75C387.9 139.52 386.12 143.28 386.12 143.28H363C355.95 137.52 312.63 129.48 312.63 129.48C319.63 126.96 340.97 127.73 340.97 127.73C348.716 128.748 356.404 130.173 364 132C357.23 128.48 343.69 126.37 343.69 126.37L349.84 123.83H383.94L407 127.48H419.88L423.88 126.86C433.831 128.827 443.629 131.5 453.2 134.86L470.9 143L471.61 143.28Z" fill="white"/>
<path opacity="0.2" d="M256.271 140.77H247.901C247.137 140.77 246.404 140.467 245.864 139.926C245.324 139.386 245.021 138.654 245.021 137.89C245.019 137.511 245.093 137.135 245.237 136.785C245.381 136.434 245.593 136.116 245.861 135.847C246.128 135.579 246.446 135.366 246.796 135.22C247.146 135.075 247.521 135 247.901 135H256.271C256.65 134.999 257.025 135.072 257.376 135.216C257.726 135.36 258.045 135.572 258.313 135.84C258.582 136.108 258.795 136.425 258.94 136.776C259.086 137.126 259.161 137.501 259.161 137.88C259.162 138.26 259.088 138.636 258.943 138.988C258.798 139.339 258.586 139.658 258.317 139.926C258.048 140.195 257.729 140.408 257.378 140.553C257.027 140.697 256.65 140.771 256.271 140.77Z" fill="white"/>
<path opacity="0.2" d="M300.5 126.37H290.44L291.09 117.03C291.118 116.636 291.295 116.267 291.584 115.997C291.874 115.728 292.255 115.579 292.65 115.58H298.83C299.85 121.79 300.5 126.37 300.5 126.37Z" fill="white"/>
<path d="M291.03 108.5H285.44C284.048 108.5 282.92 109.628 282.92 111.02V121.31C282.92 122.702 284.048 123.83 285.44 123.83H291.03C292.422 123.83 293.55 122.702 293.55 121.31V111.02C293.55 109.628 292.422 108.5 291.03 108.5Z" fill="#263238"/>
<path opacity="0.4" d="M291.03 108.5H285.44C284.048 108.5 282.92 109.628 282.92 111.02V121.31C282.92 122.702 284.048 123.83 285.44 123.83H291.03C292.422 123.83 293.55 122.702 293.55 121.31V111.02C293.55 109.628 292.422 108.5 291.03 108.5Z" fill="white"/>
<path d="M293.16 115.38C293.941 116.187 294.863 116.844 295.88 117.32C296.161 117.433 296.404 117.624 296.581 117.87C296.758 118.116 296.862 118.407 296.88 118.71L297.15 122.48C297.166 122.702 297.137 122.925 297.063 123.135C296.99 123.344 296.874 123.537 296.723 123.7C296.572 123.863 296.389 123.994 296.186 124.083C295.982 124.173 295.762 124.219 295.54 124.22H293.1C292.839 124.221 292.582 124.159 292.35 124.04L289.77 122.7C289.505 122.564 289.283 122.358 289.127 122.104C288.972 121.85 288.89 121.558 288.89 121.26V116.53C288.892 116.099 289.065 115.687 289.371 115.384C289.676 115.08 290.089 114.91 290.52 114.91H292C292.433 114.908 292.85 115.077 293.16 115.38Z" fill="#263238"/>
<path opacity="0.3" d="M293.16 115.38C293.941 116.187 294.863 116.844 295.88 117.32C296.161 117.433 296.404 117.624 296.581 117.87C296.758 118.116 296.862 118.407 296.88 118.71L297.15 122.48C297.166 122.702 297.137 122.925 297.063 123.135C296.99 123.344 296.874 123.537 296.723 123.7C296.572 123.863 296.389 123.994 296.186 124.083C295.982 124.173 295.762 124.219 295.54 124.22H293.1C292.839 124.221 292.582 124.159 292.35 124.04L289.77 122.7C289.505 122.564 289.283 122.358 289.127 122.104C288.972 121.85 288.89 121.558 288.89 121.26V116.53C288.892 116.099 289.065 115.687 289.371 115.384C289.676 115.08 290.089 114.91 290.52 114.91H292C292.433 114.908 292.85 115.077 293.16 115.38Z" fill="white"/>
<path opacity="0.2" d="M339.91 85.72C339.91 85.72 358.6 98.72 368.82 111.29C366.904 105.894 364.187 100.817 360.76 96.23C360.76 96.23 374.68 105.94 383.63 120.97L404.33 123.83H409.82C409.82 123.83 388.2 98.7 374.77 88.23C374.77 88.23 358.16 86.35 339.91 85.72Z" fill="white"/>
</svg>
