<svg width="407" height="237" viewBox="0 0 407 237" fill="none" xmlns="http://www.w3.org/2000/svg">
<path d="M269 115C269 152.555 238.555 183 201 183C163.445 183 133 152.555 133 115C133 77.4446 163.445 47 201 47C238.555 47 269 77.4446 269 115Z" fill="#DAE0EE"/>
<path d="M258 115C258 146.48 232.48 172 201 172C169.52 172 144 146.48 144 115C144 83.5198 169.52 58 201 58C232.48 58 258 83.5198 258 115Z" fill="#CED7EA"/>
<path d="M247 115.5C247 141.181 226.181 162 200.5 162C174.819 162 154 141.181 154 115.5C154 89.8188 174.819 69 200.5 69C226.181 69 247 89.8188 247 115.5Z" fill="#C0C8DB"/>
<path d="M0 8.99999C0 4.02943 4.02944 0 9 0H171C175.971 0 180 4.02944 180 9V228C180 232.971 175.971 237 171 237H9C4.02944 237 0 232.971 0 228V8.99999Z" fill="white"/>
<path d="M0 8.99999C0 4.02943 4.02944 0 9 0H171C175.971 0 180 4.02944 180 9V228C180 232.971 175.971 237 171 237H9C4.02944 237 0 232.971 0 228V8.99999Z" fill="white"/>
<path d="M0 8.99999C0 4.02943 4.02944 0 9 0H171C175.971 0 180 4.02944 180 9V228C180 232.971 175.971 237 171 237H9C4.02944 237 0 232.971 0 228V8.99999Z" fill="white"/>
<path fill-rule="evenodd" clip-rule="evenodd" d="M20.5 125C20.5 123.067 22.067 121.5 24 121.5H94C95.933 121.5 97.5 123.067 97.5 125C97.5 126.933 95.933 128.5 94 128.5H24C22.067 128.5 20.5 126.933 20.5 125Z" fill="#ADADAD"/>
<path fill-rule="evenodd" clip-rule="evenodd" d="M20.5 125C20.5 123.067 22.067 121.5 24 121.5H94C95.933 121.5 97.5 123.067 97.5 125C97.5 126.933 95.933 128.5 94 128.5H24C22.067 128.5 20.5 126.933 20.5 125Z" fill="#ADADAD"/>
<path fill-rule="evenodd" clip-rule="evenodd" d="M20.5 125C20.5 123.067 22.067 121.5 24 121.5H94C95.933 121.5 97.5 123.067 97.5 125C97.5 126.933 95.933 128.5 94 128.5H24C22.067 128.5 20.5 126.933 20.5 125Z" fill="#ADADAD"/>
<path fill-rule="evenodd" clip-rule="evenodd" d="M20.5 125C20.5 123.067 22.067 121.5 24 121.5H94C95.933 121.5 97.5 123.067 97.5 125C97.5 126.933 95.933 128.5 94 128.5H24C22.067 128.5 20.5 126.933 20.5 125Z" fill="#ADADAD"/>
<path fill-rule="evenodd" clip-rule="evenodd" d="M20.5 125C20.5 123.067 22.067 121.5 24 121.5H94C95.933 121.5 97.5 123.067 97.5 125C97.5 126.933 95.933 128.5 94 128.5H24C22.067 128.5 20.5 126.933 20.5 125Z" fill="#ADADAD"/>
<path fill-rule="evenodd" clip-rule="evenodd" d="M20.5 153C20.5 151.067 22.067 149.5 24 149.5H74C75.933 149.5 77.5 151.067 77.5 153C77.5 154.933 75.933 156.5 74 156.5H24C22.067 156.5 20.5 154.933 20.5 153Z" fill="#DCDCDC"/>
<path fill-rule="evenodd" clip-rule="evenodd" d="M20.5 175C20.5 173.067 22.067 171.5 24 171.5H74C75.933 171.5 77.5 173.067 77.5 175C77.5 176.933 75.933 178.5 74 178.5H24C22.067 178.5 20.5 176.933 20.5 175Z" fill="#DCDCDC"/>
<path fill-rule="evenodd" clip-rule="evenodd" d="M20.5 198C20.5 196.067 22.067 194.5 24 194.5H74C75.933 194.5 77.5 196.067 77.5 198C77.5 199.933 75.933 201.5 74 201.5H24C22.067 201.5 20.5 199.933 20.5 198Z" fill="#DCDCDC"/>
<path fill-rule="evenodd" clip-rule="evenodd" d="M99.5 153C99.5 151.067 101.067 149.5 103 149.5H153C154.933 149.5 156.5 151.067 156.5 153C156.5 154.933 154.933 156.5 153 156.5H103C101.067 156.5 99.5 154.933 99.5 153Z" fill="#DCDCDC"/>
<path fill-rule="evenodd" clip-rule="evenodd" d="M99.5 175C99.5 173.067 101.067 171.5 103 171.5H153C154.933 171.5 156.5 173.067 156.5 175C156.5 176.933 154.933 178.5 153 178.5H103C101.067 178.5 99.5 176.933 99.5 175Z" fill="#DCDCDC"/>
<path fill-rule="evenodd" clip-rule="evenodd" d="M99.5 198C99.5 196.067 101.067 194.5 103 194.5H153C154.933 194.5 156.5 196.067 156.5 198C156.5 199.933 154.933 201.5 153 201.5H103C101.067 201.5 99.5 199.933 99.5 198Z" fill="#DCDCDC"/>
<path d="M227 8.99999C227 4.02943 231.029 0 236 0H398C402.971 0 407 4.02944 407 9V228C407 232.971 402.971 237 398 237H236C231.029 237 227 232.971 227 228V8.99999Z" fill="white"/>
<path d="M227 8.99999C227 4.02943 231.029 0 236 0H398C402.971 0 407 4.02944 407 9V228C407 232.971 402.971 237 398 237H236C231.029 237 227 232.971 227 228V8.99999Z" fill="white"/>
<path d="M227 8.99999C227 4.02943 231.029 0 236 0H398C402.971 0 407 4.02944 407 9V228C407 232.971 402.971 237 398 237H236C231.029 237 227 232.971 227 228V8.99999Z" fill="white"/>
<path fill-rule="evenodd" clip-rule="evenodd" d="M247.5 125C247.5 123.067 249.067 121.5 251 121.5H321C322.933 121.5 324.5 123.067 324.5 125C324.5 126.933 322.933 128.5 321 128.5H251C249.067 128.5 247.5 126.933 247.5 125Z" fill="#ADADAD"/>
<path fill-rule="evenodd" clip-rule="evenodd" d="M247.5 125C247.5 123.067 249.067 121.5 251 121.5H321C322.933 121.5 324.5 123.067 324.5 125C324.5 126.933 322.933 128.5 321 128.5H251C249.067 128.5 247.5 126.933 247.5 125Z" fill="#ADADAD"/>
<path fill-rule="evenodd" clip-rule="evenodd" d="M247.5 125C247.5 123.067 249.067 121.5 251 121.5H321C322.933 121.5 324.5 123.067 324.5 125C324.5 126.933 322.933 128.5 321 128.5H251C249.067 128.5 247.5 126.933 247.5 125Z" fill="#ADADAD"/>
<path fill-rule="evenodd" clip-rule="evenodd" d="M247.5 125C247.5 123.067 249.067 121.5 251 121.5H321C322.933 121.5 324.5 123.067 324.5 125C324.5 126.933 322.933 128.5 321 128.5H251C249.067 128.5 247.5 126.933 247.5 125Z" fill="#ADADAD"/>
<path fill-rule="evenodd" clip-rule="evenodd" d="M247.5 125C247.5 123.067 249.067 121.5 251 121.5H321C322.933 121.5 324.5 123.067 324.5 125C324.5 126.933 322.933 128.5 321 128.5H251C249.067 128.5 247.5 126.933 247.5 125Z" fill="#ADADAD"/>
<path fill-rule="evenodd" clip-rule="evenodd" d="M247.5 153C247.5 151.067 249.067 149.5 251 149.5H301C302.933 149.5 304.5 151.067 304.5 153C304.5 154.933 302.933 156.5 301 156.5H251C249.067 156.5 247.5 154.933 247.5 153Z" fill="#DCDCDC"/>
<path fill-rule="evenodd" clip-rule="evenodd" d="M247.5 175C247.5 173.067 249.067 171.5 251 171.5H301C302.933 171.5 304.5 173.067 304.5 175C304.5 176.933 302.933 178.5 301 178.5H251C249.067 178.5 247.5 176.933 247.5 175Z" fill="#DCDCDC"/>
<path fill-rule="evenodd" clip-rule="evenodd" d="M247.5 198C247.5 196.067 249.067 194.5 251 194.5H301C302.933 194.5 304.5 196.067 304.5 198C304.5 199.933 302.933 201.5 301 201.5H251C249.067 201.5 247.5 199.933 247.5 198Z" fill="#DCDCDC"/>
<path fill-rule="evenodd" clip-rule="evenodd" d="M326.5 153C326.5 151.067 328.067 149.5 330 149.5H380C381.933 149.5 383.5 151.067 383.5 153C383.5 154.933 381.933 156.5 380 156.5H330C328.067 156.5 326.5 154.933 326.5 153Z" fill="#DCDCDC"/>
<path fill-rule="evenodd" clip-rule="evenodd" d="M326.5 175C326.5 173.067 328.067 171.5 330 171.5H380C381.933 171.5 383.5 173.067 383.5 175C383.5 176.933 381.933 178.5 380 178.5H330C328.067 178.5 326.5 176.933 326.5 175Z" fill="#DCDCDC"/>
<path fill-rule="evenodd" clip-rule="evenodd" d="M326.5 198C326.5 196.067 328.067 194.5 330 194.5H380C381.933 194.5 383.5 196.067 383.5 198C383.5 199.933 381.933 201.5 380 201.5H330C328.067 201.5 326.5 199.933 326.5 198Z" fill="#DCDCDC"/>
<path d="M247 35C247 28.3726 252.373 23 259 23H375C381.627 23 387 28.3726 387 35V93C387 99.6274 381.627 105 375 105H259C252.373 105 247 99.6274 247 93V35Z" fill="#D9D9D9"/>
<path d="M19 35C19 28.3726 24.3726 23 31 23H147C153.627 23 159 28.3726 159 35V93C159 99.6274 153.627 105 147 105H31C24.3726 105 19 99.6274 19 93V35Z" fill="#D9D9D9"/>
</svg>
