<svg width="670" height="439" viewBox="0 0 670 439" fill="none" xmlns="http://www.w3.org/2000/svg">
<path d="M483.66 115.413C491.45 115.413 622.484 116.291 630.711 116.001C630.85 116.001 630.985 115.955 631.095 115.873C631.205 115.79 631.284 115.673 631.32 115.542C631.357 115.411 631.349 115.271 631.297 115.145C631.245 115.018 631.152 114.912 631.033 114.842C625.843 112.323 619.956 112.823 614.56 111.041C611.389 109.987 609.441 107.95 607.235 105.606C605.412 103.56 603.055 102.042 600.419 101.216C598.008 100.499 595.449 100.414 592.995 100.97C590.315 101.593 588.028 103.086 585.491 104.034C579.193 106.37 573.083 104.148 568.589 99.574C564.882 95.7986 561.237 92.2339 556.199 90.2057C551.973 88.5024 547.265 88.1512 543.067 90.0301C538.26 92.1637 534.964 96.4746 530.453 99.056C525.093 102.138 518.696 101.409 512.791 102.331C506.887 103.253 502.339 108.152 497.158 110.97C495.471 112.05 493.516 112.658 491.503 112.726C490.349 112.626 489.202 112.467 488.064 112.252C486.277 112.033 484.58 112.085 483.383 113.543C483.088 113.903 483.151 115.413 483.66 115.413Z" fill="white"/>
<path d="M38.9856 124.413C44.6672 124.413 140.334 125.027 146.346 124.843C146.775 124.843 147.007 124.202 146.579 123.965C142.791 122.121 138.494 122.49 134.554 121.19C132.232 120.418 130.811 118.934 129.194 117.222C127.863 115.733 126.142 114.63 124.218 114.035C122.457 113.511 120.587 113.453 118.796 113.868C116.857 114.316 115.169 115.413 113.32 116.098C108.728 117.801 104.261 116.186 100.974 112.841C98.294 110.084 95.6139 107.485 91.9334 106.001C90.43 105.335 88.8034 104.98 87.1546 104.957C85.5057 104.935 83.8697 105.245 82.3479 105.869C78.8371 107.432 76.4341 110.575 73.1377 112.472C69.2249 114.711 64.5527 114.228 60.2379 114.86C55.9231 115.492 52.6089 119.109 48.8301 121.164C47.5949 121.941 46.1687 122.375 44.7029 122.42C43.8574 122.346 43.0165 122.229 42.1836 122.068C40.8883 121.91 39.6466 121.954 38.7712 123.017C38.5657 123.306 38.6104 124.413 38.9856 124.413Z" fill="white"/>
<path d="M350.133 145.318C355.815 145.318 451.482 145.932 457.494 145.748C457.923 145.748 458.155 145.107 457.726 144.87C453.938 143.026 449.686 143.404 445.702 142.096C443.379 141.332 441.959 139.839 440.342 138.127C439.009 136.64 437.289 135.538 435.366 134.94C433.605 134.416 431.734 134.358 429.943 134.773C428.005 135.221 426.316 136.318 424.467 137.003C419.867 138.706 415.4 137.091 412.121 133.746C409.441 130.998 406.761 128.39 403.072 126.906C401.57 126.24 399.944 125.885 398.297 125.864C396.649 125.843 395.015 126.156 393.495 126.783C389.985 128.346 387.573 131.481 384.276 133.377C380.372 135.616 375.7 135.089 371.385 135.765C367.071 136.441 363.756 140.015 359.969 142.069C358.734 142.848 357.307 143.281 355.841 143.325C355.002 143.325 354.171 143.079 353.331 142.982C352.027 142.824 350.794 142.859 349.919 143.922C349.713 144.211 349.758 145.318 350.133 145.318Z" fill="white"/>
<path d="M241.424 183.642C247.106 183.642 342.773 184.257 348.785 184.073C349.214 184.073 349.446 183.432 349.017 183.195C345.229 181.351 340.932 181.72 336.993 180.411C334.679 179.648 333.25 178.155 331.633 176.452C330.305 174.957 328.583 173.851 326.657 173.256C324.896 172.732 323.025 172.674 321.234 173.089C319.296 173.545 317.607 174.634 315.758 175.319C311.167 177.031 306.7 175.407 303.412 172.062C300.732 169.314 298.052 166.715 294.372 165.231C292.869 164.563 291.242 164.207 289.593 164.184C287.944 164.161 286.308 164.473 284.786 165.099C281.276 166.662 278.873 169.805 275.576 171.693C271.663 173.932 266.991 173.405 262.676 174.081C258.362 174.757 255.047 178.331 251.269 180.385C250.037 181.17 248.609 181.605 247.141 181.641C246.248 181.641 245.462 181.395 244.622 181.298C243.327 181.14 242.085 181.175 241.21 182.238C241.004 182.536 241.049 183.642 241.424 183.642Z" fill="white"/>
<path d="M158.594 82.9095C158.701 83.2256 309.37 82.9095 307.468 82.9095C306.574 82.9095 308.79 81.6364 307.941 81.2326C303.037 78.8356 297.668 78.7654 292.326 78.2825C289.208 78.0103 286.01 77.5625 283.205 76.1138C280.4 74.6651 278.595 72.1101 276.576 69.7659C273.469 66.1523 269.476 63.3765 264.975 61.7005C260.473 60.0245 255.611 59.5036 250.848 60.1869C240.128 61.8375 231.695 69.8449 220.957 71.3375C214.516 72.2155 208.451 69.7659 202.117 68.9054C196.927 68.1943 192.612 69.1864 187.966 71.4516C184.572 73.1023 181.427 74.4983 177.586 74.7617C174.638 74.9636 171.672 74.63 168.715 74.6037C163.874 74.6911 159.232 76.5147 155.664 79.7312C155.19 80.1438 153.654 82.9095 158.594 82.9095Z" fill="white"/>
<path d="M152.171 94.1392H202.135V351.542H152.171V94.1392Z" fill="#DBDBDB"/>
<path d="M184.67 102.498H194.381V112.323H184.67V102.498Z" fill="#EBEBEB"/>
<path d="M172.244 102.498H181.954V112.323H172.244V102.498Z" fill="#EBEBEB"/>
<path d="M184.67 119.188H194.381V129.013H184.67V119.188Z" fill="#EBEBEB"/>
<path d="M172.244 119.188H181.954V129.013H172.244V119.188Z" fill="#EBEBEB"/>
<path d="M184.67 135.87H194.381V145.695H184.67V135.87Z" fill="#EBEBEB"/>
<path d="M172.244 135.87H181.954V145.695H172.244V135.87Z" fill="#EBEBEB"/>
<path d="M184.67 152.561H194.381V162.386H184.67V152.561Z" fill="#EBEBEB"/>
<path d="M172.244 152.561H181.954V162.386H172.244V152.561Z" fill="#EBEBEB"/>
<path d="M184.67 169.243H194.381V179.068H184.67V169.243Z" fill="#EBEBEB"/>
<path d="M172.244 169.243H181.954V179.068H172.244V169.243Z" fill="#EBEBEB"/>
<path d="M184.67 185.934H194.381V195.759H184.67V185.934Z" fill="#EBEBEB"/>
<path d="M172.244 185.934H181.954V195.759H172.244V185.934Z" fill="#EBEBEB"/>
<path d="M184.67 202.616H194.381V212.441H184.67V202.616Z" fill="#EBEBEB"/>
<path d="M172.244 202.616H181.954V212.441H172.244V202.616Z" fill="#EBEBEB"/>
<path d="M184.67 219.307H194.381V229.132H184.67V219.307Z" fill="#EBEBEB"/>
<path d="M172.244 219.307H181.954V229.132H172.244V219.307Z" fill="#EBEBEB"/>
<path d="M184.67 235.989H194.381V245.814H184.67V235.989Z" fill="#EBEBEB"/>
<path d="M172.244 235.989H181.954V245.814H172.244V235.989Z" fill="#EBEBEB"/>
<path d="M184.67 252.68H194.381V262.504H184.67V252.68Z" fill="#EBEBEB"/>
<path d="M172.244 252.68H181.954V262.504H172.244V252.68Z" fill="#EBEBEB"/>
<path d="M184.67 269.362H194.381V279.186H184.67V269.362Z" fill="#EBEBEB"/>
<path d="M172.244 269.362H181.954V279.186H172.244V269.362Z" fill="#EBEBEB"/>
<path d="M184.67 286.052H194.381V295.877H184.67V286.052Z" fill="#EBEBEB"/>
<path d="M172.244 286.052H181.954V295.877H172.244V286.052Z" fill="#EBEBEB"/>
<path d="M184.67 302.734H194.381V312.559H184.67V302.734Z" fill="#EBEBEB"/>
<path d="M172.244 302.734H181.954V312.559H172.244V302.734Z" fill="#EBEBEB"/>
<path d="M184.67 319.425H194.381V329.25H184.67V319.425Z" fill="#EBEBEB"/>
<path d="M169.635 329.25H159.925V319.425H169.635V329.25Z" fill="#EBEBEB"/>
<path d="M169.635 312.568H159.925V302.743H169.635V312.568Z" fill="#EBEBEB"/>
<path d="M169.635 295.877H159.925V286.052H169.635V295.877Z" fill="#EBEBEB"/>
<path d="M169.635 279.195H159.925V269.37H169.635V279.195Z" fill="#EBEBEB"/>
<path d="M169.635 262.504H159.925V252.68H169.635V262.504Z" fill="#EBEBEB"/>
<path d="M169.635 245.822H159.925V235.998H169.635V245.822Z" fill="#EBEBEB"/>
<path d="M169.635 229.132H159.925V219.307H169.635V229.132Z" fill="#EBEBEB"/>
<path d="M169.635 212.45H159.925V202.625H169.635V212.45Z" fill="#EBEBEB"/>
<path d="M169.635 195.759H159.925V185.934H169.635V195.759Z" fill="#EBEBEB"/>
<path d="M169.635 179.077H159.925V169.252H169.635V179.077Z" fill="#EBEBEB"/>
<path d="M169.635 162.386H159.925V152.561H169.635V162.386Z" fill="#EBEBEB"/>
<path d="M169.635 145.704H159.925V135.879H169.635V145.704Z" fill="#EBEBEB"/>
<path d="M169.635 129.013H159.925V119.188H169.635V129.013Z" fill="#EBEBEB"/>
<path d="M169.635 112.331H159.925V102.506H169.635V112.331Z" fill="#EBEBEB"/>
<path d="M172.244 319.425H181.954V329.25H172.244V319.425Z" fill="#EBEBEB"/>
<path d="M112.775 94.1392H152.171V351.542H112.775V94.1392Z" fill="#A6A6A6"/>
<path d="M124.852 329.25H116.83V319.425H124.852V329.25Z" fill="#C7C7C7"/>
<path d="M135.117 329.25H127.095V319.425H135.117V329.25Z" fill="#C7C7C7"/>
<path d="M124.852 312.568H116.83V302.743H124.852V312.568Z" fill="#C7C7C7"/>
<path d="M135.117 312.568H127.095V302.743H135.117V312.568Z" fill="#C7C7C7"/>
<path d="M124.852 295.877H116.83V286.052H124.852V295.877Z" fill="#C7C7C7"/>
<path d="M135.117 295.877H127.095V286.052H135.117V295.877Z" fill="#C7C7C7"/>
<path d="M124.852 279.195H116.83V269.37H124.852V279.195Z" fill="#C7C7C7"/>
<path d="M135.117 279.195H127.095V269.37H135.117V279.195Z" fill="#C7C7C7"/>
<path d="M124.852 262.504H116.83V252.68H124.852V262.504Z" fill="#C7C7C7"/>
<path d="M135.117 262.504H127.095V252.68H135.117V262.504Z" fill="#C7C7C7"/>
<path d="M124.852 245.822H116.83V235.998H124.852V245.822Z" fill="#C7C7C7"/>
<path d="M135.117 245.822H127.095V235.998H135.117V245.822Z" fill="#C7C7C7"/>
<path d="M124.852 229.132H116.83V219.307H124.852V229.132Z" fill="#C7C7C7"/>
<path d="M135.117 229.132H127.095V219.307H135.117V229.132Z" fill="#C7C7C7"/>
<path d="M124.852 212.45H116.83V202.625H124.852V212.45Z" fill="#C7C7C7"/>
<path d="M135.117 212.45H127.095V202.625H135.117V212.45Z" fill="#C7C7C7"/>
<path d="M124.852 195.759H116.83V185.934H124.852V195.759Z" fill="#C7C7C7"/>
<path d="M135.117 195.759H127.095V185.934H135.117V195.759Z" fill="#C7C7C7"/>
<path d="M124.852 179.077H116.83V169.252H124.852V179.077Z" fill="#C7C7C7"/>
<path d="M135.117 179.077H127.095V169.252H135.117V179.077Z" fill="#C7C7C7"/>
<path d="M124.852 162.386H116.83V152.561H124.852V162.386Z" fill="#C7C7C7"/>
<path d="M135.117 162.386H127.095V152.561H135.117V162.386Z" fill="#C7C7C7"/>
<path d="M124.852 145.704H116.83V135.879H124.852V145.704Z" fill="#C7C7C7"/>
<path d="M135.117 145.704H127.095V135.879H135.117V145.704Z" fill="#C7C7C7"/>
<path d="M124.852 129.013H116.83V119.188H124.852V129.013Z" fill="#C7C7C7"/>
<path d="M135.117 129.013H127.095V119.188H135.117V129.013Z" fill="#C7C7C7"/>
<path d="M124.852 112.331H116.83V102.506H124.852V112.331Z" fill="#C7C7C7"/>
<path d="M137.27 102.498H145.292V112.323H137.27V102.498Z" fill="#C7C7C7"/>
<path d="M137.27 119.188H145.292V129.013H137.27V119.188Z" fill="#C7C7C7"/>
<path d="M137.27 135.87H145.292V145.695H137.27V135.87Z" fill="#C7C7C7"/>
<path d="M137.27 152.561H145.292V162.386H137.27V152.561Z" fill="#C7C7C7"/>
<path d="M137.27 169.243H145.292V179.068H137.27V169.243Z" fill="#C7C7C7"/>
<path d="M137.27 185.934H145.292V195.759H137.27V185.934Z" fill="#C7C7C7"/>
<path d="M137.27 202.616H145.292V212.441H137.27V202.616Z" fill="#C7C7C7"/>
<path d="M137.27 219.307H145.292V229.132H137.27V219.307Z" fill="#C7C7C7"/>
<path d="M137.27 235.989H145.292V245.814H137.27V235.989Z" fill="#C7C7C7"/>
<path d="M137.27 252.68H145.292V262.504H137.27V252.68Z" fill="#C7C7C7"/>
<path d="M137.27 269.362H145.292V279.186H137.27V269.362Z" fill="#C7C7C7"/>
<path d="M137.27 286.052H145.292V295.877H137.27V286.052Z" fill="#C7C7C7"/>
<path d="M137.27 302.734H145.292V312.559H137.27V302.734Z" fill="#C7C7C7"/>
<path d="M137.27 319.425H145.292V329.25H137.27V319.425Z" fill="#C7C7C7"/>
<path d="M135.117 112.331H127.095V102.506H135.117V112.331Z" fill="#C7C7C7"/>
<path d="M505.44 74.1734H565.588V351.542H505.44V74.1734Z" fill="#EBEBEB"/>
<path d="M505.439 68.6508H567.034V74.1734H505.439V68.6508Z" fill="#C7C7C7"/>
<path d="M554.055 82.3125H560.147V351.542H554.055V82.3125Z" fill="white"/>
<path d="M543.263 82.3125H549.355V351.542H543.263V82.3125Z" fill="white"/>
<path d="M532.472 82.3125H538.564V351.542H532.472V82.3125Z" fill="white"/>
<path d="M521.671 82.3125H527.764V351.542H521.671V82.3125Z" fill="white"/>
<path d="M510.88 82.3125H516.973V351.542H510.88V82.3125Z" fill="white"/>
<path d="M554.055 89.2926H560.147V100.197H554.055V89.2926Z" fill="#EBEBEB"/>
<path d="M543.263 89.2926H549.355V100.197H543.263V89.2926Z" fill="#EBEBEB"/>
<path d="M532.472 89.2926H538.564V100.197H532.472V89.2926Z" fill="#EBEBEB"/>
<path d="M521.671 89.2926H527.764V100.197H521.671V89.2926Z" fill="#EBEBEB"/>
<path d="M510.88 89.2926H516.973V100.197H510.88V89.2926Z" fill="#EBEBEB"/>
<path d="M554.055 107.011H560.147V117.915H554.055V107.011Z" fill="#EBEBEB"/>
<path d="M543.263 107.011H549.355V117.915H543.263V107.011Z" fill="#EBEBEB"/>
<path d="M532.472 107.011H538.564V117.915H532.472V107.011Z" fill="#EBEBEB"/>
<path d="M521.671 107.011H527.764V117.915H521.671V107.011Z" fill="#EBEBEB"/>
<path d="M510.88 107.011H516.973V117.915H510.88V107.011Z" fill="#EBEBEB"/>
<path d="M554.055 124.729H560.147V135.633H554.055V124.729Z" fill="#EBEBEB"/>
<path d="M543.263 124.729H549.355V135.633H543.263V124.729Z" fill="#EBEBEB"/>
<path d="M532.472 124.729H538.564V135.633H532.472V124.729Z" fill="#EBEBEB"/>
<path d="M521.671 124.729H527.764V135.633H521.671V124.729Z" fill="#EBEBEB"/>
<path d="M510.88 124.729H516.973V135.633H510.88V124.729Z" fill="#EBEBEB"/>
<path d="M554.055 142.455H560.147V153.36H554.055V142.455Z" fill="#EBEBEB"/>
<path d="M543.263 142.455H549.355V153.36H543.263V142.455Z" fill="#EBEBEB"/>
<path d="M532.472 142.455H538.564V153.36H532.472V142.455Z" fill="#EBEBEB"/>
<path d="M521.671 142.455H527.764V153.36H521.671V142.455Z" fill="#EBEBEB"/>
<path d="M510.88 142.455H516.973V153.36H510.88V142.455Z" fill="#EBEBEB"/>
<path d="M554.055 160.174H560.147V171.078H554.055V160.174Z" fill="#EBEBEB"/>
<path d="M543.263 160.174H549.355V171.078H543.263V160.174Z" fill="#EBEBEB"/>
<path d="M532.472 160.174H538.564V171.078H532.472V160.174Z" fill="#EBEBEB"/>
<path d="M521.671 160.174H527.764V171.078H521.671V160.174Z" fill="#EBEBEB"/>
<path d="M510.88 160.174H516.973V171.078H510.88V160.174Z" fill="#EBEBEB"/>
<path d="M554.055 177.892H560.147V188.796H554.055V177.892Z" fill="#EBEBEB"/>
<path d="M543.263 177.892H549.355V188.796H543.263V177.892Z" fill="#EBEBEB"/>
<path d="M532.472 177.892H538.564V188.796H532.472V177.892Z" fill="#EBEBEB"/>
<path d="M521.671 177.892H527.764V188.796H521.671V177.892Z" fill="#EBEBEB"/>
<path d="M510.88 177.892H516.973V188.796H510.88V177.892Z" fill="#EBEBEB"/>
<path d="M554.055 195.61H560.147V206.514H554.055V195.61Z" fill="#EBEBEB"/>
<path d="M543.263 195.61H549.355V206.514H543.263V195.61Z" fill="#EBEBEB"/>
<path d="M532.472 195.61H538.564V206.514H532.472V195.61Z" fill="#EBEBEB"/>
<path d="M521.671 195.61H527.764V206.514H521.671V195.61Z" fill="#EBEBEB"/>
<path d="M510.88 195.61H516.973V206.514H510.88V195.61Z" fill="#EBEBEB"/>
<path d="M554.055 213.336H560.147V224.241H554.055V213.336Z" fill="#EBEBEB"/>
<path d="M543.263 213.336H549.355V224.241H543.263V213.336Z" fill="#EBEBEB"/>
<path d="M532.472 213.336H538.564V224.241H532.472V213.336Z" fill="#EBEBEB"/>
<path d="M521.671 213.336H527.764V224.241H521.671V213.336Z" fill="#EBEBEB"/>
<path d="M510.88 213.336H516.973V224.241H510.88V213.336Z" fill="#EBEBEB"/>
<path d="M554.055 231.054H560.147V241.959H554.055V231.054Z" fill="#EBEBEB"/>
<path d="M543.263 231.054H549.355V241.959H543.263V231.054Z" fill="#EBEBEB"/>
<path d="M532.472 231.054H538.564V241.959H532.472V231.054Z" fill="#EBEBEB"/>
<path d="M521.671 231.054H527.764V241.959H521.671V231.054Z" fill="#EBEBEB"/>
<path d="M510.88 231.054H516.973V241.959H510.88V231.054Z" fill="#EBEBEB"/>
<path d="M554.055 248.773H560.147V259.677H554.055V248.773Z" fill="#EBEBEB"/>
<path d="M543.263 248.773H549.355V259.677H543.263V248.773Z" fill="#EBEBEB"/>
<path d="M532.472 248.773H538.564V259.677H532.472V248.773Z" fill="#EBEBEB"/>
<path d="M521.671 248.773H527.764V259.677H521.671V248.773Z" fill="#EBEBEB"/>
<path d="M510.88 248.773H516.973V259.677H510.88V248.773Z" fill="#EBEBEB"/>
<path d="M554.055 266.491H560.147V277.395H554.055V266.491Z" fill="#EBEBEB"/>
<path d="M543.263 266.491H549.355V277.395H543.263V266.491Z" fill="#EBEBEB"/>
<path d="M532.472 266.491H538.564V277.395H532.472V266.491Z" fill="#EBEBEB"/>
<path d="M521.671 266.491H527.764V277.395H521.671V266.491Z" fill="#EBEBEB"/>
<path d="M510.88 266.491H516.973V277.395H510.88V266.491Z" fill="#EBEBEB"/>
<path d="M554.055 284.209H560.147V295.113H554.055V284.209Z" fill="#EBEBEB"/>
<path d="M543.263 284.209H549.355V295.113H543.263V284.209Z" fill="#EBEBEB"/>
<path d="M532.472 284.209H538.564V295.113H532.472V284.209Z" fill="#EBEBEB"/>
<path d="M521.671 284.209H527.764V295.113H521.671V284.209Z" fill="#EBEBEB"/>
<path d="M510.88 284.209H516.973V295.113H510.88V284.209Z" fill="#EBEBEB"/>
<path d="M554.055 301.935H560.147V312.84H554.055V301.935Z" fill="#EBEBEB"/>
<path d="M543.263 301.935H549.355V312.84H543.263V301.935Z" fill="#EBEBEB"/>
<path d="M532.472 301.935H538.564V312.84H532.472V301.935Z" fill="#EBEBEB"/>
<path d="M521.671 301.935H527.764V312.84H521.671V301.935Z" fill="#EBEBEB"/>
<path d="M510.88 301.935H516.973V312.84H510.88V301.935Z" fill="#EBEBEB"/>
<path d="M554.055 319.653H560.147V351.542H554.055V319.653Z" fill="#EBEBEB"/>
<path d="M543.263 319.653H549.355V351.542H543.263V319.653Z" fill="#EBEBEB"/>
<path d="M532.472 319.653H538.564V351.542H532.472V319.653Z" fill="#EBEBEB"/>
<path d="M521.671 319.653H527.764V351.542H521.671V319.653Z" fill="#EBEBEB"/>
<path d="M510.88 319.653H516.973V351.542H510.88V319.653Z" fill="#EBEBEB"/>
<path d="M466.83 74.1734H505.439V351.542H466.83V74.1734Z" fill="#DBDBDB"/>
<path d="M465.15 68.6508H505.439V74.1734H465.15V68.6508Z" fill="#C7C7C7"/>
<path d="M493.915 82.3125H500.008V351.542H493.915V82.3125Z" fill="#C7C7C7"/>
<path d="M483.115 82.3125H489.207V351.542H483.115V82.3125Z" fill="#C7C7C7"/>
<path d="M472.323 82.3125H478.416V351.542H472.323V82.3125Z" fill="#C7C7C7"/>
<path d="M493.915 89.2926H500.008V100.197H493.915V89.2926Z" fill="#DBDBDB"/>
<path d="M483.115 89.2926H489.207V100.197H483.115V89.2926Z" fill="#DBDBDB"/>
<path d="M472.323 89.2926H478.416V100.197H472.323V89.2926Z" fill="#DBDBDB"/>
<path d="M493.915 107.011H500.008V117.915H493.915V107.011Z" fill="#DBDBDB"/>
<path d="M483.115 107.011H489.207V117.915H483.115V107.011Z" fill="#DBDBDB"/>
<path d="M472.323 107.011H478.416V117.915H472.323V107.011Z" fill="#DBDBDB"/>
<path d="M493.915 124.729H500.008V135.633H493.915V124.729Z" fill="#DBDBDB"/>
<path d="M483.115 124.729H489.207V135.633H483.115V124.729Z" fill="#DBDBDB"/>
<path d="M472.323 124.729H478.416V135.633H472.323V124.729Z" fill="#DBDBDB"/>
<path d="M493.915 142.455H500.008V153.36H493.915V142.455Z" fill="#DBDBDB"/>
<path d="M483.115 142.455H489.207V153.36H483.115V142.455Z" fill="#DBDBDB"/>
<path d="M472.323 142.455H478.416V153.36H472.323V142.455Z" fill="#DBDBDB"/>
<path d="M493.915 160.174H500.008V171.078H493.915V160.174Z" fill="#DBDBDB"/>
<path d="M483.115 160.174H489.207V171.078H483.115V160.174Z" fill="#DBDBDB"/>
<path d="M472.323 160.174H478.416V171.078H472.323V160.174Z" fill="#DBDBDB"/>
<path d="M493.915 177.892H500.008V188.796H493.915V177.892Z" fill="#DBDBDB"/>
<path d="M483.115 177.892H489.207V188.796H483.115V177.892Z" fill="#DBDBDB"/>
<path d="M472.323 177.892H478.416V188.796H472.323V177.892Z" fill="#DBDBDB"/>
<path d="M493.915 195.61H500.008V206.514H493.915V195.61Z" fill="#DBDBDB"/>
<path d="M483.115 195.61H489.207V206.514H483.115V195.61Z" fill="#DBDBDB"/>
<path d="M472.323 195.61H478.416V206.514H472.323V195.61Z" fill="#DBDBDB"/>
<path d="M493.915 213.336H500.008V224.241H493.915V213.336Z" fill="#DBDBDB"/>
<path d="M483.115 213.336H489.207V224.241H483.115V213.336Z" fill="#DBDBDB"/>
<path d="M472.323 213.336H478.416V224.241H472.323V213.336Z" fill="#DBDBDB"/>
<path d="M493.915 231.054H500.008V241.959H493.915V231.054Z" fill="#DBDBDB"/>
<path d="M483.115 231.054H489.207V241.959H483.115V231.054Z" fill="#DBDBDB"/>
<path d="M472.323 231.054H478.416V241.959H472.323V231.054Z" fill="#DBDBDB"/>
<path d="M493.915 248.773H500.008V259.677H493.915V248.773Z" fill="#DBDBDB"/>
<path d="M483.115 248.773H489.207V259.677H483.115V248.773Z" fill="#DBDBDB"/>
<path d="M472.323 248.773H478.416V259.677H472.323V248.773Z" fill="#DBDBDB"/>
<path d="M493.915 266.491H500.008V277.395H493.915V266.491Z" fill="#DBDBDB"/>
<path d="M483.115 266.491H489.207V277.395H483.115V266.491Z" fill="#DBDBDB"/>
<path d="M472.323 266.491H478.416V277.395H472.323V266.491Z" fill="#DBDBDB"/>
<path d="M493.915 284.209H500.008V295.113H493.915V284.209Z" fill="#DBDBDB"/>
<path d="M483.115 284.209H489.207V295.113H483.115V284.209Z" fill="#DBDBDB"/>
<path d="M472.323 284.209H478.416V295.113H472.323V284.209Z" fill="#DBDBDB"/>
<path d="M493.915 301.935H500.008V312.84H493.915V301.935Z" fill="#DBDBDB"/>
<path d="M483.115 301.935H489.207V312.84H483.115V301.935Z" fill="#DBDBDB"/>
<path d="M472.323 301.935H478.416V312.84H472.323V301.935Z" fill="#DBDBDB"/>
<path d="M493.915 319.653H500.008V351.542H493.915V319.653Z" fill="#DBDBDB"/>
<path d="M483.115 319.653H489.207V351.542H483.115V319.653Z" fill="#DBDBDB"/>
<path d="M472.323 319.653H478.416V351.542H472.323V319.653Z" fill="#DBDBDB"/>
<path d="M577.826 167.294H627.254V351.542H577.826V167.294Z" fill="#EBEBEB"/>
<path d="M577.826 155.081H620.224V167.303H577.826V155.081Z" fill="#C7C7C7"/>
<path d="M583.249 173.677H621.841V311.409H583.249V173.677Z" fill="#DBDBDB"/>
<path d="M583.249 186.821H621.841V190.078H583.249V186.821Z" fill="white"/>
<path d="M583.249 200.298H621.841V203.556H583.249V200.298Z" fill="white"/>
<path d="M583.249 213.784H621.841V217.042H583.249V213.784Z" fill="white"/>
<path d="M583.249 227.262H621.841V230.519H583.249V227.262Z" fill="white"/>
<path d="M583.249 240.748H621.841V244.005H583.249V240.748Z" fill="white"/>
<path d="M583.249 254.225H621.841V257.482H583.249V254.225Z" fill="white"/>
<path d="M583.249 267.711H621.841V270.968H583.249V267.711Z" fill="white"/>
<path d="M583.249 281.188H621.841V284.446H583.249V281.188Z" fill="white"/>
<path d="M583.249 294.674H621.841V297.932H583.249V294.674Z" fill="white"/>
<path d="M583.249 308.152H621.841V311.409H583.249V308.152Z" fill="white"/>
<path d="M546.863 167.294H577.826V351.542H546.863V167.294Z" fill="#DBDBDB"/>
<path d="M551.509 155.081H577.826V167.303H551.509V155.081Z" fill="#A6A6A6"/>
<path d="M549.748 173.677H573.556V311.409H549.748V173.677Z" fill="#C7C7C7"/>
<path d="M549.748 186.821H573.556V190.078H549.748V186.821Z" fill="white"/>
<path d="M549.748 200.298H573.556V203.556H549.748V200.298Z" fill="white"/>
<path d="M549.748 213.784H573.556V217.042H549.748V213.784Z" fill="white"/>
<path d="M549.748 227.262H573.556V230.519H549.748V227.262Z" fill="white"/>
<path d="M549.748 240.748H573.556V244.005H549.748V240.748Z" fill="white"/>
<path d="M549.748 254.225H573.556V257.482H549.748V254.225Z" fill="white"/>
<path d="M549.748 267.711H573.556V270.968H549.748V267.711Z" fill="white"/>
<path d="M549.748 281.188H573.556V284.446H549.748V281.188Z" fill="white"/>
<path d="M549.748 294.674H573.556V297.932H549.748V294.674Z" fill="white"/>
<path d="M549.748 308.152H573.556V311.409H549.748V308.152Z" fill="white"/>
<path d="M83.5004 170.402H109.898V201.053H83.5004V170.402Z" fill="#DBDBDB"/>
<path d="M66.7589 170.402H83.5V202.177H66.7589V170.402Z" fill="#C7C7C7"/>
<path d="M65.6428 183.941H82.2588V202.177H65.6428V183.941Z" fill="#DBDBDB"/>
<path d="M55.2799 183.941H65.6426V202.177H55.2799V183.941Z" fill="#C7C7C7"/>
<path d="M77.3359 199.06H120.028V351.542H77.3359V199.06Z" fill="#EBEBEB"/>
<path d="M101.715 205.619H115.142V211.01H101.715V205.619Z" fill="white"/>
<path d="M84.5449 205.619H97.9717V211.01H84.5449V205.619Z" fill="white"/>
<path d="M101.715 214.768H115.142V220.159H101.715V214.768Z" fill="white"/>
<path d="M84.5449 214.768H97.9717V220.159H84.5449V214.768Z" fill="white"/>
<path d="M101.715 223.916H115.142V229.307H101.715V223.916Z" fill="white"/>
<path d="M84.5449 223.916H97.9717V229.307H84.5449V223.916Z" fill="white"/>
<path d="M101.715 233.074H115.142V238.465H101.715V233.074Z" fill="white"/>
<path d="M84.5449 233.074H97.9717V238.465H84.5449V233.074Z" fill="white"/>
<path d="M101.715 242.223H115.142V247.614H101.715V242.223Z" fill="white"/>
<path d="M84.5449 242.223H97.9717V247.614H84.5449V242.223Z" fill="white"/>
<path d="M101.715 251.38H115.142V256.771H101.715V251.38Z" fill="white"/>
<path d="M84.5449 251.38H97.9717V256.771H84.5449V251.38Z" fill="white"/>
<path d="M101.715 260.529H115.142V265.92H101.715V260.529Z" fill="white"/>
<path d="M84.5449 260.529H97.9717V265.92H84.5449V260.529Z" fill="white"/>
<path d="M101.715 269.686H115.142V275.077H101.715V269.686Z" fill="white"/>
<path d="M84.5449 269.686H97.9717V275.077H84.5449V269.686Z" fill="white"/>
<path d="M101.715 278.835H115.142V284.226H101.715V278.835Z" fill="white"/>
<path d="M84.5449 278.835H97.9717V284.226H84.5449V278.835Z" fill="white"/>
<path d="M101.715 287.984H115.142V293.375H101.715V287.984Z" fill="white"/>
<path d="M84.5449 287.984H97.9717V293.375H84.5449V287.984Z" fill="white"/>
<path d="M101.715 297.142H115.142V302.532H101.715V297.142Z" fill="white"/>
<path d="M84.5449 297.142H97.9717V302.532H84.5449V297.142Z" fill="white"/>
<path d="M101.715 306.29H115.142V311.681H101.715V306.29Z" fill="white"/>
<path d="M84.5449 306.29H97.9717V311.681H84.5449V306.29Z" fill="white"/>
<path d="M101.715 315.448H115.142V320.839H101.715V315.448Z" fill="white"/>
<path d="M84.5449 315.448H97.9717V320.839H84.5449V315.448Z" fill="white"/>
<path d="M101.715 324.597H115.142V329.988H101.715V324.597Z" fill="white"/>
<path d="M84.5449 324.597H97.9717V329.988H84.5449V324.597Z" fill="white"/>
<path d="M42.746 199.06H77.3359V351.542H42.746V199.06Z" fill="#C7C7C7"/>
<path d="M57.2366 329.988H46.2129V324.597H57.2366V329.988Z" fill="#EBEBEB"/>
<path d="M71.3421 329.988H60.3184V324.597H71.3421V329.988Z" fill="#EBEBEB"/>
<path d="M57.2366 320.83H46.2129V315.439H57.2366V320.83Z" fill="#EBEBEB"/>
<path d="M71.3421 320.83H60.3184V315.439H71.3421V320.83Z" fill="#EBEBEB"/>
<path d="M57.2366 311.681H46.2129V306.29H57.2366V311.681Z" fill="#EBEBEB"/>
<path d="M71.3421 311.681H60.3184V306.29H71.3421V311.681Z" fill="#EBEBEB"/>
<path d="M57.2366 302.532H46.2129V297.142H57.2366V302.532Z" fill="#EBEBEB"/>
<path d="M71.3421 302.532H60.3184V297.142H71.3421V302.532Z" fill="#EBEBEB"/>
<path d="M57.2366 293.384H46.2129V287.993H57.2366V293.384Z" fill="#EBEBEB"/>
<path d="M71.3421 293.384H60.3184V287.993H71.3421V293.384Z" fill="#EBEBEB"/>
<path d="M57.2366 284.226H46.2129V278.835H57.2366V284.226Z" fill="#EBEBEB"/>
<path d="M71.3421 284.226H60.3184V278.835H71.3421V284.226Z" fill="#EBEBEB"/>
<path d="M57.2366 275.069H46.2129V269.678H57.2366V275.069Z" fill="#EBEBEB"/>
<path d="M71.3421 275.069H60.3184V269.678H71.3421V275.069Z" fill="#EBEBEB"/>
<path d="M57.2366 265.92H46.2129V260.529H57.2366V265.92Z" fill="#EBEBEB"/>
<path d="M71.3421 265.92H60.3184V260.529H71.3421V265.92Z" fill="#EBEBEB"/>
<path d="M57.2366 256.762H46.2129V251.371H57.2366V256.762Z" fill="#EBEBEB"/>
<path d="M71.3421 256.762H60.3184V251.371H71.3421V256.762Z" fill="#EBEBEB"/>
<path d="M57.2366 247.622H46.2129V242.231H57.2366V247.622Z" fill="#EBEBEB"/>
<path d="M71.3421 247.622H60.3184V242.231H71.3421V247.622Z" fill="#EBEBEB"/>
<path d="M57.2366 238.465H46.2129V233.074H57.2366V238.465Z" fill="#EBEBEB"/>
<path d="M71.3421 238.465H60.3184V233.074H71.3421V238.465Z" fill="#EBEBEB"/>
<path d="M57.2366 229.316H46.2129V223.925H57.2366V229.316Z" fill="#EBEBEB"/>
<path d="M71.3421 229.316H60.3184V223.925H71.3421V229.316Z" fill="#EBEBEB"/>
<path d="M57.2366 220.158H46.2129V214.768H57.2366V220.158Z" fill="#EBEBEB"/>
<path d="M71.3421 220.158H60.3184V214.768H71.3421V220.158Z" fill="#EBEBEB"/>
<path d="M57.2366 211.001H46.2129V205.61H57.2366V211.001Z" fill="#EBEBEB"/>
<path d="M71.3421 211.001H60.3184V205.61H71.3421V211.001Z" fill="#EBEBEB"/>
<path d="M426.326 230.247H476.772V351.542H426.326V230.247Z" fill="#C7C7C7"/>
<path d="M459.915 240.748H468.84V248.175H459.915V240.748Z" fill="#DBDBDB"/>
<path d="M459.915 256.622H468.84V264.05H459.915V256.622Z" fill="#DBDBDB"/>
<path d="M459.915 272.496H468.84V279.924H459.915V272.496Z" fill="#DBDBDB"/>
<path d="M459.915 288.362H468.84V295.789H459.915V288.362Z" fill="#DBDBDB"/>
<path d="M459.915 304.236H468.84V311.664H459.915V304.236Z" fill="#DBDBDB"/>
<path d="M459.915 320.11H468.84V327.538H459.915V320.11Z" fill="#DBDBDB"/>
<path d="M459.915 335.984H468.84V343.412H459.915V335.984Z" fill="#DBDBDB"/>
<path d="M447.078 240.748H456.002V248.175H447.078V240.748Z" fill="#DBDBDB"/>
<path d="M447.078 256.622H456.002V264.05H447.078V256.622Z" fill="#DBDBDB"/>
<path d="M447.078 272.496H456.002V279.924H447.078V272.496Z" fill="#DBDBDB"/>
<path d="M447.078 288.362H456.002V295.789H447.078V288.362Z" fill="#DBDBDB"/>
<path d="M447.078 304.236H456.002V311.664H447.078V304.236Z" fill="#DBDBDB"/>
<path d="M447.078 320.11H456.002V327.538H447.078V320.11Z" fill="#DBDBDB"/>
<path d="M447.078 335.984H456.002V343.412H447.078V335.984Z" fill="#DBDBDB"/>
<path d="M434.267 240.748H443.191V248.175H434.267V240.748Z" fill="#DBDBDB"/>
<path d="M434.267 256.622H443.191V264.05H434.267V256.622Z" fill="#DBDBDB"/>
<path d="M434.267 272.496H443.191V279.924H434.267V272.496Z" fill="#DBDBDB"/>
<path d="M434.267 288.362H443.191V295.789H434.267V288.362Z" fill="#DBDBDB"/>
<path d="M434.267 304.236H443.191V311.664H434.267V304.236Z" fill="#DBDBDB"/>
<path d="M434.267 320.11H443.191V327.538H434.267V320.11Z" fill="#DBDBDB"/>
<path d="M434.267 335.984H443.191V343.412H434.267V335.984Z" fill="#DBDBDB"/>
<path d="M426.335 217.612H459.915V230.247H426.335V217.612Z" fill="#DBDBDB"/>
<path d="M426.335 209.789H447.623V217.612H426.335V209.789Z" fill="#EBEBEB"/>
<path d="M390.941 230.247H426.335V351.542H390.941V230.247Z" fill="#A6A6A6"/>
<path d="M401.83 342.227H394.567V334.799H401.83V342.227Z" fill="#C7C7C7"/>
<path d="M401.83 326.361H394.567V318.933H401.83V326.361Z" fill="#C7C7C7"/>
<path d="M401.83 310.487H394.567V303.059H401.83V310.487Z" fill="#C7C7C7"/>
<path d="M401.83 294.613H394.567V287.185H401.83V294.613Z" fill="#C7C7C7"/>
<path d="M401.83 278.739H394.567V271.311H401.83V278.739Z" fill="#C7C7C7"/>
<path d="M401.83 262.864H394.567V255.437H401.83V262.864Z" fill="#C7C7C7"/>
<path d="M401.83 246.999H394.567V239.571H401.83V246.999Z" fill="#C7C7C7"/>
<path d="M412.282 342.227H405.02V334.799H412.282V342.227Z" fill="#C7C7C7"/>
<path d="M412.282 326.361H405.02V318.933H412.282V326.361Z" fill="#C7C7C7"/>
<path d="M412.282 310.487H405.02V303.059H412.282V310.487Z" fill="#C7C7C7"/>
<path d="M412.282 294.613H405.02V287.185H412.282V294.613Z" fill="#C7C7C7"/>
<path d="M412.282 278.739H405.02V271.311H412.282V278.739Z" fill="#C7C7C7"/>
<path d="M412.282 262.864H405.02V255.437H412.282V262.864Z" fill="#C7C7C7"/>
<path d="M412.282 246.999H405.02V239.571H412.282V246.999Z" fill="#C7C7C7"/>
<path d="M422.708 342.227H415.445V334.799H422.708V342.227Z" fill="#C7C7C7"/>
<path d="M422.708 326.361H415.445V318.933H422.708V326.361Z" fill="#C7C7C7"/>
<path d="M422.708 310.487H415.445V303.059H422.708V310.487Z" fill="#C7C7C7"/>
<path d="M422.708 294.613H415.445V287.185H422.708V294.613Z" fill="#C7C7C7"/>
<path d="M422.708 278.739H415.445V271.311H422.708V278.739Z" fill="#C7C7C7"/>
<path d="M422.708 262.864H415.445V255.437H422.708V262.864Z" fill="#C7C7C7"/>
<path d="M422.708 246.999H415.445V239.571H422.708V246.999Z" fill="#C7C7C7"/>
<path d="M396.301 217.612H426.335V230.247H396.301V217.612Z" fill="#C7C7C7"/>
<path d="M410.058 209.789H426.335V217.612H410.058V209.789Z" fill="#DBDBDB"/>
<path d="M606.573 311.98C606.573 311.98 595.683 335.747 613.46 335.774C631.238 335.8 619.714 311.19 619.714 311.19C619.714 311.19 623.832 309.434 619.08 296.141C614.327 282.848 612.183 282.865 610.2 282.865C607.698 282.865 605.358 288.607 607.055 297.422C607.073 297.422 600.811 308.415 606.573 311.98Z" fill="#37474F"/>
<path d="M615.015 351.542L613.335 315.72L611.584 351.542H615.015Z" fill="#263238"/>
<path d="M614.023 330.734L607.565 323.315L612.63 331.717L614.023 330.734Z" fill="#263238"/>
<path d="M388.993 314.535C388.993 314.535 394.058 312.568 398.078 319.451C402.196 326.475 397.015 331.155 392.915 328.381C392.915 328.381 389.69 335.018 383.258 333.429C376.826 331.84 375.781 326.783 375.781 326.783C375.781 326.783 370.063 327.169 369.911 322.981C369.759 318.793 373.94 315.079 373.94 315.079C373.94 315.079 374.19 304.64 381.087 304.727C387.983 304.815 388.993 314.535 388.993 314.535Z" fill="#455A64"/>
<path d="M384.24 351.525L382.829 320.461L381.346 351.525H384.24Z" fill="#263238"/>
<path d="M383.24 332.139L387.697 323.429L382.516 330.778L383.24 332.139Z" fill="#263238"/>
<path d="M474.181 314.535C474.181 314.535 479.255 312.568 483.275 319.451C487.385 326.475 482.212 331.155 478.112 328.381C478.112 328.381 474.887 335.018 468.446 333.429C462.005 331.84 460.969 326.783 460.969 326.783C460.969 326.783 455.26 327.169 455.1 322.981C454.939 318.793 459.137 315.079 459.137 315.079C459.137 315.079 459.388 304.64 466.284 304.727C473.181 304.815 474.181 314.535 474.181 314.535Z" fill="#455A64"/>
<path d="M469.438 351.525L468.017 320.461L466.534 351.525H469.438Z" fill="#263238"/>
<path d="M468.437 332.139L472.886 323.429L467.713 330.778L468.437 332.139Z" fill="#263238"/>
<path d="M118.161 311.822C118.161 311.822 107.271 335.589 125.048 335.607C142.826 335.624 131.302 311.023 131.302 311.023C131.302 311.023 135.42 309.267 130.659 295.974C125.897 282.681 123.789 282.716 121.815 282.716C119.304 282.716 116.964 288.449 118.67 297.273C118.67 297.264 112.399 308.257 118.161 311.822Z" fill="#37474F"/>
<path d="M126.603 351.384L124.932 315.553L123.172 351.376L126.603 351.384Z" fill="#263238"/>
<path d="M125.611 330.576L119.161 323.157L124.218 331.559L125.611 330.576Z" fill="#263238"/>
<path d="M413.443 316.87C413.443 316.87 422.931 337.714 407.36 337.696C391.789 337.679 401.902 316.15 401.902 316.15C401.902 316.15 398.328 314.587 402.5 302.98C406.672 291.373 408.557 291.364 410.299 291.373C412.488 291.373 414.524 296.404 412.979 304.122C413.024 304.113 418.491 313.762 413.443 316.87Z" fill="#37474F"/>
<path d="M405.966 351.507L407.503 320.128L408.968 351.507H405.966Z" fill="#263238"/>
<path d="M406.877 333.289L412.541 326.792L408.092 334.149L406.877 333.289Z" fill="#263238"/>
<path d="M273.02 316.87C273.02 316.87 282.507 337.714 266.936 337.696C251.365 337.679 261.487 316.15 261.487 316.15C261.487 316.15 257.913 314.587 262.076 302.98C266.239 291.373 268.133 291.364 269.875 291.373C272.064 291.373 274.101 296.404 272.555 304.122C272.6 304.113 278.067 313.762 273.02 316.87Z" fill="#37474F"/>
<path d="M265.543 351.507L267.08 320.128L268.545 351.507H265.543Z" fill="#263238"/>
<path d="M266.454 333.289L272.118 326.792L267.669 334.149L266.454 333.289Z" fill="#263238"/>
<path d="M108.406 314.412C108.406 314.412 113.48 312.436 117.5 319.32C121.618 326.388 116.437 331.024 112.337 328.258C112.337 328.258 109.112 334.896 102.671 333.306C96.2297 331.717 95.2024 326.651 95.2024 326.651C95.2024 326.651 89.4851 327.046 89.3332 322.849C89.1813 318.653 93.3621 314.947 93.3621 314.947C93.3621 314.947 93.6123 304.508 100.509 304.596C107.405 304.684 108.406 314.412 108.406 314.412Z" fill="#455A64"/>
<path d="M103.662 351.402L102.251 320.338L100.768 351.393L103.662 351.402Z" fill="#263238"/>
<path d="M102.679 331.972L107.119 323.297L101.804 330.637L102.679 331.972Z" fill="#263238"/>
<path d="M247.685 176.381C248.378 176.04 249.094 175.747 249.829 175.503C250.578 175.224 251.363 175.047 252.161 174.977C252.405 174.959 252.65 174.985 252.884 175.056C252.96 175.084 253.035 175.116 253.107 175.152L253.25 175.258C253.34 175.319 253.411 175.389 253.501 175.46C253.815 175.735 254.113 176.028 254.394 176.338C254.912 176.917 255.385 177.523 255.85 178.146L255.269 177.944C256.051 177.724 256.848 177.56 257.655 177.453C258.066 177.396 258.481 177.367 258.896 177.365C259.117 177.362 259.338 177.377 259.557 177.409C259.679 177.427 259.799 177.456 259.915 177.496C260.039 177.541 260.158 177.597 260.272 177.663C260.628 177.908 260.944 178.204 261.21 178.541C261.469 178.857 261.692 179.182 261.916 179.516C262.338 180.184 262.708 180.883 263.023 181.606C262.505 181 262.014 180.394 261.487 179.85C261.228 179.56 260.969 179.279 260.692 179.024C260.441 178.776 260.159 178.56 259.852 178.383C259.564 178.291 259.26 178.261 258.959 178.295C258.584 178.32 258.21 178.37 257.842 178.445C257.092 178.576 256.332 178.761 255.6 178.954L255.234 179.051L255.019 178.752C254.59 178.155 254.126 177.558 253.661 176.996C253.439 176.713 253.201 176.443 252.947 176.188L252.759 176.013L252.679 175.942C252.548 175.891 252.409 175.864 252.268 175.863C251.53 175.862 250.794 175.933 250.07 176.074C249.239 176.092 248.444 176.25 247.685 176.381Z" fill="#263238"/>
<path d="M256.101 198.718C257.012 198.012 257.97 197.367 258.969 196.786C259.987 196.161 261.087 195.674 262.238 195.337C262.593 195.242 262.962 195.213 263.328 195.25C263.451 195.259 263.572 195.289 263.685 195.337L263.927 195.443C264.087 195.513 264.212 195.592 264.355 195.662C264.871 195.969 265.369 196.304 265.847 196.663C266.794 197.366 267.634 198.121 268.527 198.893L267.634 198.77C268.716 198.224 269.835 197.752 270.984 197.357C271.569 197.161 272.166 197 272.771 196.874C273.095 196.812 273.423 196.774 273.753 196.76C273.935 196.747 274.117 196.747 274.298 196.76C274.486 196.76 274.691 196.856 274.87 196.9C275.47 197.159 276.024 197.509 276.514 197.936C276.981 198.324 277.425 198.737 277.845 199.174C278.665 200.03 279.415 200.949 280.087 201.922C279.194 201.185 278.256 200.439 277.309 199.754C276.856 199.402 276.385 199.073 275.897 198.77C275.457 198.476 274.98 198.24 274.477 198.068C274.004 198.013 273.526 198.061 273.074 198.209C272.532 198.351 272.001 198.53 271.484 198.744C270.43 199.157 269.358 199.622 268.34 200.14L267.83 200.386L267.428 200.008C266.624 199.245 265.767 198.507 264.909 197.796C264.496 197.442 264.064 197.111 263.614 196.804C263.507 196.742 263.399 196.663 263.292 196.611L263.149 196.532C263.149 196.532 263.149 196.532 263.096 196.532C262.889 196.495 262.677 196.495 262.47 196.532C261.384 196.74 260.322 197.055 259.299 197.471C258.236 197.857 257.173 198.296 256.101 198.718Z" fill="#263238"/>
<path d="M431.667 108.784C432.289 108.33 432.943 107.919 433.624 107.555C434.319 107.166 435.064 106.871 435.839 106.677C436.081 106.635 436.329 106.635 436.572 106.677C436.651 106.695 436.728 106.718 436.804 106.747L436.965 106.826C437.06 106.874 437.153 106.926 437.242 106.984C437.579 107.197 437.905 107.429 438.215 107.678C438.832 108.17 439.395 108.688 439.957 109.223L439.359 109.118C440.094 108.781 440.849 108.488 441.619 108.24C442.012 108.134 442.414 108.029 442.834 107.959C443.052 107.92 443.273 107.9 443.495 107.897C443.617 107.889 443.739 107.889 443.861 107.897C443.989 107.923 444.114 107.958 444.236 108.003C444.633 108.19 444.997 108.435 445.317 108.732C445.617 109.008 445.9 109.302 446.166 109.61C446.696 110.199 447.18 110.827 447.613 111.488C447.006 110.979 446.416 110.461 445.827 109.978C445.523 109.741 445.21 109.504 444.933 109.302C444.659 109.098 444.358 108.93 444.04 108.802C443.726 108.756 443.406 108.776 443.102 108.863C442.739 108.951 442.381 109.06 442.03 109.188C441.315 109.443 440.592 109.741 439.904 110.066L439.555 110.215L439.296 109.961C438.778 109.434 438.215 108.916 437.662 108.424C437.395 108.181 437.114 107.952 436.822 107.739C436.75 107.739 436.679 107.634 436.607 107.599L436.518 107.546C436.518 107.546 436.518 107.546 436.473 107.546C436.338 107.522 436.198 107.522 436.062 107.546C435.335 107.668 434.62 107.856 433.927 108.108C433.114 108.257 432.373 108.53 431.667 108.784Z" fill="#263238"/>
<path d="M406.011 105.72C406.668 104.777 407.39 103.879 408.172 103.033C408.955 102.14 409.856 101.354 410.852 100.698C411.161 100.504 411.503 100.367 411.862 100.294C411.983 100.276 412.107 100.276 412.228 100.294C412.317 100.289 412.407 100.289 412.496 100.294L412.97 100.391C413.557 100.526 414.136 100.696 414.703 100.9C415.81 101.295 416.865 101.778 417.937 102.252L417.043 102.392C417.915 101.559 418.843 100.784 419.822 100.074C420.322 99.7112 420.847 99.3826 421.394 99.0911C421.682 98.9348 421.981 98.7969 422.287 98.6784C422.463 98.6232 422.642 98.5792 422.823 98.5467C423.019 98.5331 423.216 98.5331 423.413 98.5467C424.061 98.6192 424.694 98.791 425.289 99.056C425.86 99.293 426.396 99.5652 426.932 99.8462C427.975 100.428 428.969 101.088 429.907 101.822C428.799 101.383 427.701 100.944 426.602 100.557C426.062 100.353 425.51 100.18 424.949 100.039C424.441 99.8798 423.911 99.794 423.377 99.7847C422.912 99.8632 422.472 100.047 422.091 100.32C421.617 100.616 421.163 100.941 420.733 101.295C419.839 101.997 418.946 102.77 418.151 103.543L417.74 103.929L417.24 103.683C416.239 103.191 415.194 102.735 414.167 102.305C413.666 102.088 413.153 101.9 412.63 101.743C412.51 101.703 412.388 101.671 412.264 101.646H412.103H412.041C411.832 101.675 411.63 101.737 411.442 101.83C410.472 102.334 409.554 102.928 408.7 103.604C407.797 104.271 406.922 105 406.011 105.72Z" fill="#263238"/>
<path d="M222.387 193.239C223.044 192.296 223.766 191.398 224.548 190.552C225.328 189.657 226.23 188.871 227.228 188.217C227.534 188.018 227.877 187.881 228.238 187.813C228.36 187.799 228.482 187.799 228.604 187.813H228.863C229.042 187.813 229.185 187.874 229.346 187.901C229.93 188.042 230.505 188.215 231.07 188.419C232.186 188.814 233.241 189.297 234.313 189.771L233.419 189.911C234.289 189.075 235.217 188.301 236.197 187.593C236.7 187.23 237.225 186.899 237.77 186.601C238.057 186.444 238.355 186.309 238.663 186.197C238.835 186.139 239.011 186.095 239.19 186.066C239.386 186.053 239.583 186.053 239.78 186.066C240.431 186.136 241.068 186.308 241.665 186.575C242.226 186.805 242.772 187.069 243.299 187.365C244.344 187.944 245.342 188.602 246.283 189.332C245.167 188.902 244.077 188.454 242.969 188.068C242.424 187.874 241.87 187.69 241.325 187.55C240.814 187.399 240.286 187.313 239.753 187.295C239.287 187.381 238.846 187.564 238.458 187.831C237.988 188.131 237.538 188.46 237.109 188.814C236.215 189.508 235.322 190.289 234.527 191.062L234.116 191.448L233.616 191.202C232.615 190.71 231.57 190.254 230.543 189.824C230.042 189.606 229.529 189.415 229.006 189.253L228.64 189.165H228.479C228.479 189.165 228.479 189.165 228.417 189.165C228.207 189.19 228.004 189.252 227.818 189.349C226.844 189.867 225.926 190.479 225.075 191.176C224.173 191.79 223.289 192.519 222.387 193.239Z" fill="#263238"/>
<path d="M567.061 244.584C577.868 245.182 588.7 245.182 599.507 244.584C588.7 243.987 577.868 243.987 567.061 244.584Z" fill="#263238"/>
<path d="M592.101 255.077C603.245 255.674 614.413 255.674 625.557 255.077C614.413 254.471 603.245 254.471 592.101 255.077Z" fill="#263238"/>
<path d="M598.283 248.562C611.281 249.159 624.387 249.159 637.394 248.562C624.387 247.956 611.281 247.956 598.283 248.562Z" fill="#263238"/>
<path d="M348.4 188.445C359.207 189.042 370.039 189.042 380.846 188.445C370.039 187.848 359.207 187.848 348.4 188.445Z" fill="#263238"/>
<path d="M395.809 231.186C406.956 231.783 418.127 231.783 429.273 231.186C418.127 230.589 406.956 230.589 395.809 231.186Z" fill="#263238"/>
<path d="M377.961 223.504C390.968 224.101 404.073 224.101 417.08 223.504C404.073 222.907 390.968 222.907 377.961 223.504Z" fill="#263238"/>
<g opacity="0.8">
<path d="M627.799 387.584L621.367 386.443C621.367 386.443 628.21 379.542 624.047 375.301C619.884 371.06 613.505 374.809 613.505 374.809C613.505 374.809 614.452 364.721 606.52 362.614C598.587 360.507 591.592 375.591 591.592 375.591C591.592 375.591 590.431 372.079 584.499 373.44C578.567 374.801 573.886 382.764 573.886 382.764L500.409 387.593" fill="white"/>
<path d="M627.799 387.584L621.376 386.399C622.832 385.024 623.992 383.376 624.788 381.552C626.914 377.277 623.895 373.29 619.259 373.15C617.203 373.154 615.183 373.684 613.398 374.686L613.631 374.827C613.735 373.304 613.633 371.775 613.327 370.279C612.183 363.545 605.135 359.488 599.453 364.484C595.88 367.425 593.441 371.429 591.413 375.503H591.789C591.394 374.591 590.663 373.86 589.743 373.457C585.044 371.587 580.139 374.757 577.147 378.172C575.879 379.515 574.781 381.004 573.877 382.606L500.409 387.567L573.895 382.878C573.984 382.878 573.967 382.878 574.011 382.808C574.995 381.246 576.122 379.777 577.379 378.418C579.836 375.723 583.07 373.308 586.911 373.326C588.698 373.255 590.717 373.975 591.378 375.67L591.556 376.083L591.753 375.687C593.763 371.693 596.219 367.785 599.695 364.827C603.447 361.455 608.503 362.131 611.308 366.258C612.857 368.843 613.55 371.838 613.291 374.827V375.099L613.532 374.967C615.266 373.984 617.23 373.458 619.232 373.44C622.135 373.44 625.315 375.6 625.244 378.664C625.172 381.728 623.234 384.309 621.277 386.496H621.34L627.781 387.602L627.799 387.584Z" fill="#263238"/>
</g>
<g opacity="0.8">
<path d="M610.228 387.584L603.804 386.443C603.804 386.443 610.647 379.542 606.484 375.301C602.322 371.06 595.943 374.809 595.943 374.809C595.943 374.809 596.926 364.721 588.984 362.605C581.042 360.489 574.065 375.582 574.065 375.582C574.065 375.582 572.895 372.07 566.972 373.431C561.05 374.792 556.36 382.755 556.36 382.755L482.883 387.584" fill="white"/>
<path d="M610.228 387.584L603.813 386.399C605.264 385.019 606.423 383.373 607.226 381.552C609.352 377.277 606.333 373.29 601.696 373.15C599.646 373.155 597.633 373.685 595.854 374.686L596.077 374.827C596.182 373.304 596.08 371.775 595.773 370.279C594.639 363.545 587.59 359.488 581.909 364.484C578.336 367.425 575.888 371.429 573.869 375.503H574.235C573.841 374.591 573.11 373.86 572.189 373.457C567.49 371.587 562.595 374.757 559.602 378.172C558.335 379.515 557.237 381.004 556.333 382.606L482.865 387.567L556.351 382.878C556.44 382.878 556.422 382.878 556.458 382.808C557.447 381.25 558.574 379.781 559.826 378.418C562.282 375.723 565.525 373.308 569.358 373.326C571.144 373.255 573.163 373.975 573.824 375.67L573.994 376.083L574.19 375.687C576.209 371.693 578.657 367.785 582.141 364.827C585.893 361.455 590.949 362.131 593.754 366.258C595.306 368.842 596.002 371.837 595.747 374.827V375.099L595.988 374.967C597.72 373.98 599.685 373.453 601.687 373.44C604.591 373.44 607.771 375.6 607.699 378.664C607.628 381.728 605.689 384.309 603.724 386.496H603.796L610.228 387.602V387.584Z" fill="#263238"/>
</g>
<path d="M344.193 221.423C350.062 226.524 356.244 233.548 364.078 235.567C370.225 237.13 376.683 235.348 382.168 232.556C394.237 226.41 405.681 213.512 401.509 199.253C399.839 193.555 392.201 186.786 385.661 188.893C382.311 189.982 379.756 192.405 376.96 194.416C375.274 195.718 373.312 196.632 371.218 197.087C369.124 197.543 366.953 197.53 364.865 197.05C356.128 195.188 352.045 190.965 344.818 186.224C344.133 185.708 343.347 185.337 342.509 185.135C341.671 184.933 340.8 184.903 339.95 185.047C336.237 185.809 332.909 187.814 330.534 190.719C328.443 193.906 328.899 198.902 328.747 202.528C328.595 206.154 329.569 208.674 332.365 211.194C336.269 214.662 340.253 218.016 344.193 221.423Z" fill="#263238"/>
<path d="M346.462 224.426C341.388 219.439 336.421 214.355 331.41 209.306C331.41 209.306 331.41 209.219 331.41 209.254C335.653 213.293 339.95 217.27 344.14 221.361C348.329 225.453 352.18 229.781 356.646 233.425C366.634 241.617 379.131 234.619 385.554 225.751C385.849 225.347 386.448 225.848 386.162 226.243C380.266 233.855 370.412 240.712 360.336 236.463C354.86 234.145 350.616 228.508 346.462 224.426Z" fill="#263238"/>
<path d="M343.889 186.268C343.782 186.18 343.889 186.031 344.032 186.11C349.812 190.254 356.154 195.627 363.56 196.338C367.207 196.682 370.875 195.935 374.083 194.196C376.621 192.809 378.479 190.684 380.667 188.867C389.217 181.781 400.848 190.816 400.365 200.483C400.365 200.684 399.999 200.676 399.999 200.483C399.999 193.459 394.836 187.005 387.314 186.847C381.275 186.715 378.05 193.055 372.895 195.311C362.211 199.965 351.857 192.826 343.889 186.268Z" fill="#263238"/>
<path d="M382.347 256.613C382.347 256.613 382.999 250.546 382.963 249.291C382.928 248.035 376.406 243.706 376.406 243.706C376.406 243.706 374.87 232.117 373.637 229.5C373.298 228.772 362.176 227.744 360.728 229.044C359.281 230.343 352.161 257.087 352.161 257.087L382.347 256.613Z" fill="#CFD8DC"/>
<path opacity="0.5" d="M382.347 256.613C382.347 256.613 382.999 250.546 382.963 249.291C382.928 248.035 376.406 243.706 376.406 243.706C376.406 243.706 374.87 232.117 373.637 229.5C373.298 228.772 362.176 227.744 360.728 229.044C359.281 230.343 352.161 257.087 352.161 257.087L382.347 256.613Z" fill="white"/>
<path d="M341.138 225.734C334.885 238.026 324.754 252.135 321.485 254.032C317.295 256.429 296.248 256.236 295.096 256.086C292.246 255.7 292.469 236.691 295.533 236.972C300.188 237.402 312.945 239.176 314.168 238.421C315.392 237.666 324.46 230.703 333.947 222.713C340.459 217.191 345.015 218.113 341.138 225.734Z" fill="#D3766A"/>
<path d="M286.913 235.005C283.539 234.3 280.023 234.736 276.934 236.243C274.049 237.648 273.45 242.539 273.968 243.619C274.486 244.699 278.828 250.924 281.731 249.58C284.634 248.237 280.4 243.864 280.221 243.224C280.043 242.583 279.793 241.766 280.364 241.573C280.936 241.38 292.692 241.389 292.692 241.389L286.913 235.005Z" fill="#D3766A"/>
<path d="M286.394 234.909C286.233 234.979 276.996 235.576 274.111 236.981C271.225 238.386 270.636 243.276 271.154 244.356C271.672 245.436 276.005 251.661 278.908 250.318C281.811 248.974 277.577 244.602 277.398 243.961C277.22 243.32 276.969 242.512 277.55 242.31C278.131 242.109 289.869 242.126 289.869 242.126L286.394 234.909Z" fill="#D3766A"/>
<path d="M279.721 249.492C279.788 248.838 279.677 248.177 279.4 247.578C279.164 246.948 278.832 246.356 278.417 245.822C278.008 245.386 277.638 244.916 277.309 244.418C277.057 243.889 276.946 243.306 276.988 242.723C276.988 242.214 277.506 242.152 277.935 242.109C278.574 242.073 279.216 242.073 279.855 242.109L281.91 242.179C282.621 242.176 283.331 242.217 284.036 242.302C284.046 242.306 284.054 242.313 284.06 242.321C284.065 242.33 284.068 242.34 284.068 242.35C284.068 242.36 284.065 242.37 284.06 242.379C284.054 242.387 284.046 242.394 284.036 242.398C283.441 242.429 282.845 242.429 282.25 242.398C281.58 242.398 280.901 242.398 280.231 242.398C279.561 242.398 278.971 242.398 278.337 242.398C278.032 242.366 277.725 242.412 277.443 242.53C277.247 242.679 277.443 243.267 277.443 243.461C277.567 244.032 277.859 244.554 278.283 244.962C278.683 245.4 279.036 245.876 279.337 246.384C279.629 246.86 279.828 247.383 279.927 247.93C279.961 248.45 279.928 248.972 279.829 249.484C279.829 249.58 279.712 249.563 279.721 249.492Z" fill="#263238"/>
<path d="M285.054 234.681C284.876 234.681 275.701 233.513 272.593 234.329C269.484 235.146 267.911 239.817 268.206 240.976C268.501 242.135 271.494 249.089 274.611 248.325C277.729 247.561 274.451 242.468 274.415 241.81C274.379 241.151 274.281 240.3 274.888 240.212C275.496 240.124 287.002 242.433 287.002 242.433L285.054 234.681Z" fill="#D3766A"/>
<path d="M275.576 247.684C275.766 247.053 275.788 246.385 275.638 245.743C275.54 245.072 275.335 244.421 275.031 243.812C274.722 243.3 274.453 242.766 274.227 242.214C274.078 241.638 274.078 241.034 274.227 240.458C274.361 239.966 274.861 240.001 275.29 240.045C275.925 240.12 276.555 240.235 277.175 240.388C277.845 240.528 278.506 240.695 279.176 240.844C279.872 240.984 280.558 241.166 281.231 241.389C281.284 241.389 281.275 241.485 281.231 241.476C280.63 241.403 280.033 241.298 279.444 241.16L277.452 240.792C276.835 240.686 276.219 240.546 275.594 240.449C275.3 240.378 274.994 240.378 274.7 240.449C274.477 240.554 274.504 241.16 274.504 241.327C274.51 241.91 274.69 242.478 275.022 242.96C275.329 243.465 275.581 244.001 275.772 244.558C275.959 245.083 276.05 245.636 276.04 246.191C275.966 246.706 275.828 247.21 275.629 247.693C275.665 247.789 275.549 247.745 275.576 247.684Z" fill="#263238"/>
<path d="M285.505 264.466L281.195 266.616L265.775 236.755L270.084 234.606L285.505 264.466Z" fill="#263238"/>
<path d="M265.026 250.797L273.62 247.666L275.514 252.688L266.92 255.819L265.026 250.797Z" fill="#263238"/>
<path d="M262.141 250.707L267.728 248.672L270.386 255.719L264.799 257.754L262.141 250.707Z" fill="#263238"/>
<path d="M299.223 238.122C299.223 238.122 288.824 235.26 286.394 234.909C283.178 234.435 278.131 235.989 277.961 238.509C277.961 239.237 281.159 242.293 281.392 242.899C282.053 244.523 281.937 248.167 279.194 249.37C276.452 250.572 272.834 247.491 270.145 248.211C267.456 248.931 271.243 252.653 274.245 254.427C277.287 256.07 280.741 256.831 284.206 256.622C286.957 256.402 295.676 256.104 295.676 256.104L299.223 238.122Z" fill="#D3766A"/>
<path d="M274.942 249.018C276.336 249.317 277.97 249.782 279.337 249.212C280.704 248.641 281.222 247.315 281.329 245.91C281.511 244.49 281.134 243.054 280.275 241.898C279.408 240.897 278.267 240.163 276.988 239.782C275.422 239.324 273.797 239.09 272.164 239.088C272.092 239.088 272.11 238.974 272.164 238.974C273.674 238.974 278.292 238.702 280.686 241.705C281.553 242.891 281.927 244.357 281.731 245.805C281.765 246.486 281.624 247.165 281.321 247.778C281.018 248.392 280.563 248.921 279.998 249.317C278.462 250.195 276.47 249.545 274.862 249.124C274.808 249.071 274.871 249.001 274.942 249.018Z" fill="#263238"/>
<path d="M295.694 235.576L297.311 258.755C297.311 258.755 317.331 257.948 321.646 255.129C325.96 252.311 336.886 235.093 340.977 226.454C345.069 217.814 340.343 216.936 334.644 221.634C328.944 226.331 314.847 237.675 314.168 237.833C313.489 237.991 295.694 235.576 295.694 235.576Z" fill="#455A64"/>
<path d="M301.501 249.615C301.286 246.876 301.054 244.137 300.947 241.389C300.884 239.826 300.813 238.272 300.759 236.709C300.759 236.647 300.867 236.639 300.867 236.709C301.197 239.448 301.51 242.196 301.715 244.953C301.921 247.71 302.126 250.432 302.287 253.171C302.376 254.734 302.421 256.288 302.412 257.851H302.358C301.947 255.12 301.715 252.372 301.501 249.615Z" fill="#263238"/>
<path d="M297.186 256.446L297.347 258.755C297.347 258.755 317.376 257.948 321.681 255.138C325.987 252.328 336.922 235.093 341.013 226.454C344.006 220.141 342.282 217.963 338.914 219.096C328.444 228.28 308.666 245.752 297.186 256.446Z" fill="#37474F"/>
<path d="M369.6 263.339L322.762 264.094L326.434 250.309C326.434 250.309 322.548 246.797 324.477 239.87C325.594 235.813 330.784 228.157 334.045 224.303C342.005 214.899 348.919 219.149 351.125 221.563C359.55 230.8 369.6 263.339 369.6 263.339Z" fill="#455A64"/>
<path d="M349.124 219.93L338.681 220.167L338.261 220.439L349.508 220.185C349.383 220.097 349.294 220.009 349.124 219.93ZM352.769 223.627L334.277 224.039L334.509 223.767L352.572 223.363L352.769 223.627ZM354.975 227.077L331.454 227.613L331.651 227.349L354.815 226.831C354.873 226.91 354.927 226.992 354.975 227.077ZM356.843 230.589L328.988 231.221C329.051 231.134 329.105 231.037 329.167 230.94L356.717 230.326C356.762 230.378 356.807 230.466 356.843 230.554V230.589ZM358.54 234.101L326.809 234.812L326.961 234.558L358.415 233.847L358.54 234.101ZM360.094 237.613L325.031 238.403C325.031 238.316 325.102 238.228 325.138 238.131L359.978 237.35L360.094 237.613ZM361.559 241.081L324.039 241.959C324.039 241.88 324.039 241.792 324.039 241.705L361.398 240.827C361.497 240.809 361.533 240.897 361.559 240.976V241.081ZM362.962 244.593L324.075 245.471C324.075 245.383 324.075 245.296 324.075 245.208L362.89 244.33L362.962 244.593ZM364.293 248.105L325.29 248.983L325.147 248.729L364.195 247.851L364.293 248.105ZM365.57 251.617L325.906 252.495L325.978 252.232L365.472 251.354C365.517 251.248 365.535 251.336 365.57 251.424V251.617ZM366.812 255.129L324.968 256.077L325.04 255.814L366.714 254.62C366.74 254.716 366.773 254.81 366.812 254.901V255.129ZM367.991 258.641L324.021 259.633L324.093 259.361L367.866 258.378L367.991 258.641ZM369.135 262.153L323.083 263.189L323.155 262.917L369.054 261.644C369.09 261.705 369.108 261.802 369.135 261.881V262.153Z" fill="white"/>
<path d="M338.967 249.501C336.965 249.324 334.953 249.292 332.946 249.405C331.945 249.475 330.963 249.589 329.971 249.721C329.48 249.791 328.979 249.844 328.488 249.888C327.972 249.953 327.45 249.953 326.934 249.888C326.88 249.888 326.871 249.949 326.934 249.958C327.413 250.072 327.899 250.151 328.39 250.195C328.866 250.226 329.343 250.226 329.819 250.195C330.838 250.133 331.847 250.028 332.857 249.949C334.893 249.809 336.93 249.668 338.976 249.668C338.993 249.661 339.009 249.649 339.019 249.634C339.029 249.618 339.034 249.6 339.033 249.581C339.032 249.563 339.025 249.545 339.013 249.531C339.001 249.516 338.985 249.506 338.967 249.501Z" fill="#263238"/>
<path d="M343.523 252.083C341.928 251.629 340.309 251.262 338.672 250.985C337.859 250.845 337.037 250.757 336.207 250.687L335.027 250.608C334.59 250.608 334.134 250.608 333.714 250.608C333.67 250.608 333.652 250.669 333.714 250.669C334.116 250.713 334.527 250.818 334.929 250.88L336.153 251.064L338.61 251.45C340.245 251.688 341.879 251.933 343.505 252.223C343.586 252.232 343.603 252.109 343.523 252.083Z" fill="#263238"/>
<path d="M345.604 220.378C345.363 221.203 341.048 226.41 337.18 226.041C335.921 225.918 336.287 219.14 336.287 219.14L336.198 218.64L335 211.598L343.648 206.716L344.899 206.075C344.899 206.075 345.104 208.042 345.345 210.465V210.817C345.345 210.957 345.345 211.089 345.39 211.212C345.435 211.58 345.47 211.949 345.506 212.327C345.542 212.704 345.551 212.88 345.569 213.205C345.586 213.53 345.569 213.793 345.631 214.083C345.767 216.179 345.758 218.283 345.604 220.378Z" fill="#D3766A"/>
<path d="M345.31 210.457C344.488 212.391 343.248 214.128 341.677 215.545C340.105 216.963 338.238 218.027 336.207 218.666L335 211.598L343.648 206.716L344.899 206.075C344.899 206.075 345.068 208.016 345.31 210.457Z" fill="#263238"/>
<path d="M325.764 198.832C322.351 211.01 329.337 214.39 332.017 215.11C334.438 215.769 342.782 217.691 347.454 205.926C352.126 194.161 347.507 188.77 342.022 187.014C336.537 185.258 329.176 186.663 325.764 198.832Z" fill="#D3766A"/>
<path d="M328.095 197.208C328.399 197.208 328.685 197.208 328.988 197.208C329.294 197.255 329.607 197.206 329.882 197.067C329.96 197.006 330.015 196.921 330.039 196.826C330.063 196.731 330.055 196.63 330.016 196.54C329.909 196.371 329.758 196.233 329.579 196.141C329.4 196.048 329.199 196.004 328.997 196.013C328.584 195.975 328.17 196.087 327.836 196.33C327.752 196.387 327.688 196.47 327.654 196.565C327.62 196.66 327.617 196.763 327.646 196.86C327.674 196.957 327.733 197.042 327.814 197.104C327.894 197.167 327.992 197.203 328.095 197.208Z" fill="#263238"/>
<path d="M336.787 198.937C336.501 198.832 336.26 198.691 335.983 198.56C335.685 198.463 335.427 198.272 335.251 198.015C335.209 197.924 335.2 197.822 335.224 197.725C335.248 197.628 335.305 197.542 335.385 197.48C335.56 197.38 335.759 197.328 335.961 197.328C336.163 197.328 336.362 197.38 336.537 197.48C336.929 197.632 337.248 197.923 337.43 198.296C337.477 198.385 337.493 198.486 337.478 198.584C337.462 198.683 337.416 198.774 337.344 198.845C337.273 198.916 337.181 198.963 337.081 198.98C336.981 198.996 336.878 198.981 336.787 198.937Z" fill="#263238"/>
<path d="M333.901 201.808C333.901 201.808 333.964 201.87 333.946 201.905C333.687 202.721 333.535 203.661 334.214 204.188C334.214 204.188 334.214 204.249 334.214 204.232C333.303 203.854 333.526 202.546 333.901 201.808Z" fill="#263238"/>
<path d="M334.903 201.15C336.287 201.413 335.644 204.117 334.358 203.872C333.071 203.626 333.741 200.922 334.903 201.15Z" fill="#263238"/>
<path d="M335.411 201.413C335.608 201.624 335.777 201.949 336.063 202.045C336.349 202.142 336.715 201.931 336.957 201.712C336.841 202.239 336.51 202.721 335.929 202.669C335.349 202.616 335.134 202.072 335.125 201.527C335.206 201.457 335.322 201.334 335.411 201.413Z" fill="#263238"/>
<path d="M329.212 200.544C329.212 200.544 329.14 200.544 329.132 200.597C328.962 201.475 328.631 202.353 327.792 202.493V202.537C328.747 202.616 329.194 201.369 329.212 200.544Z" fill="#263238"/>
<path d="M328.657 199.49C327.308 199.086 326.576 201.764 327.818 202.124C329.059 202.484 329.783 199.833 328.657 199.49Z" fill="#263238"/>
<path d="M328.033 199.517C327.782 199.605 327.497 199.806 327.237 199.754C326.978 199.701 326.791 199.35 326.675 199.025C326.675 199.025 326.675 199.025 326.63 199.025C326.518 199.248 326.49 199.504 326.552 199.745C326.614 199.987 326.762 200.198 326.969 200.342C327.407 200.553 327.863 200.202 328.122 199.719C328.175 199.648 328.14 199.49 328.033 199.517Z" fill="#263238"/>
<path d="M332.321 208.701C332.102 208.913 331.814 209.043 331.508 209.069C331.186 209.004 330.881 208.873 330.615 208.683C330.615 208.683 330.552 208.683 330.57 208.683C330.659 208.873 330.799 209.035 330.976 209.151C331.152 209.267 331.358 209.333 331.57 209.342C331.755 209.335 331.934 209.273 332.081 209.163C332.228 209.053 332.337 208.9 332.392 208.727C332.455 208.709 332.392 208.683 332.321 208.701Z" fill="#263238"/>
<path d="M329.569 204.82C329.328 205.394 329.117 205.98 328.935 206.576C328.935 206.637 329.051 206.699 329.257 206.76C329.746 206.978 330.286 207.059 330.819 206.994C331.352 206.929 331.856 206.721 332.276 206.391C332.33 206.348 332.276 206.269 332.205 206.286C331.313 206.611 330.34 206.648 329.426 206.391C329.426 206.216 330.32 204.354 330.239 204.328C329.765 204.261 329.284 204.261 328.81 204.328C329.757 201.791 331.106 199.429 332.008 196.883C332.01 196.865 332.006 196.847 331.997 196.831C331.988 196.816 331.974 196.803 331.957 196.795C331.941 196.788 331.922 196.785 331.904 196.788C331.886 196.791 331.869 196.8 331.856 196.812C330.329 199.316 329.061 201.963 328.068 204.714C327.961 205.004 329.301 204.864 329.569 204.82Z" fill="#263238"/>
<path d="M329.417 206.532C329.621 207.097 329.968 207.602 330.427 207.998C330.68 208.204 330.992 208.33 331.32 208.358C332.043 208.358 332.267 207.796 332.311 207.243C332.347 206.951 332.347 206.657 332.311 206.365C331.39 206.724 330.375 206.782 329.417 206.532Z" fill="#263238"/>
<path d="M330.427 207.998C330.68 208.204 330.992 208.33 331.32 208.358C332.044 208.358 332.267 207.796 332.312 207.243C331.957 207.146 331.579 207.167 331.238 207.304C330.896 207.44 330.611 207.685 330.427 207.998Z" fill="#FF9BBC"/>
<path d="M346.891 207.34C346.165 206.781 345.598 206.048 345.244 205.212C344.89 204.375 344.762 203.463 344.872 202.563C342.864 201.152 341.276 199.239 340.271 197.023C340.271 197.295 340.512 199.271 340.655 200.272C332.946 197.137 331.722 190.614 331.722 190.614C329.891 191.681 328.328 193.139 327.148 194.881C327.148 194.881 328.131 190.034 331.365 187.321C332.429 186.359 333.736 185.695 335.15 185.397C336.563 185.099 338.033 185.178 339.405 185.627C341.488 185.569 343.548 186.064 345.37 187.059C347.192 188.054 348.708 189.512 349.758 191.281C353.761 197.919 346.891 207.34 346.891 207.34Z" fill="#263238"/>
<path d="M334.83 197.699C335.971 198.661 337.25 199.451 338.627 200.044C336.501 198.969 334.722 197.333 333.49 195.32C332.97 194.461 332.561 193.54 332.275 192.581C331.918 191.542 331.775 190.443 331.855 189.349C331.855 189.27 331.739 189.262 331.73 189.349C331.543 190.422 331.543 191.517 331.73 192.589C331.947 193.647 332.362 194.657 332.954 195.566C333.48 196.372 334.121 197.099 334.857 197.726L334.83 197.699Z" fill="#263238"/>
<path d="M349.955 207.208L350.509 207.059C350.437 206.804 349.794 204.592 348.606 204.135C347.418 203.678 339.905 202.809 339.583 202.774L339.521 203.327C341.692 203.582 347.561 204.319 348.401 204.653C349.24 204.987 349.794 206.576 349.955 207.208Z" fill="#A6A6A6"/>
<path d="M331.722 202.203L332.169 201.861C331.651 201.211 330.382 200.202 329.105 201.053L329.426 201.51C330.534 200.746 331.669 202.151 331.722 202.203Z" fill="#A6A6A6"/>
<g opacity="0.9">
<path d="M334.241 207.041C334.573 207.156 334.918 207.232 335.268 207.27C336.059 207.347 336.857 207.205 337.57 206.858C338.282 206.512 338.882 205.976 339.3 205.311C339.717 204.647 339.937 203.88 339.933 203.098C339.928 202.317 339.701 201.552 339.276 200.892C338.852 200.231 338.247 199.701 337.53 199.362C336.814 199.023 336.015 198.889 335.225 198.974C334.435 199.06 333.685 199.362 333.061 199.846C332.437 200.33 331.963 200.976 331.695 201.712C331.539 202.128 331.454 202.568 331.445 203.011C331.423 203.886 331.681 204.746 332.183 205.469C332.684 206.192 333.404 206.742 334.241 207.041Z" fill="#37474F"/>
<g opacity="0.1">
<path d="M334.643 199.069L339.673 204.513C339.93 203.797 339.983 203.025 339.824 202.282L336.93 199.139C336.189 198.91 335.398 198.886 334.643 199.069Z" fill="white"/>
<path d="M332.177 200.772L337.68 206.769C337.92 206.636 338.147 206.483 338.359 206.312L332.66 200.166C332.48 200.353 332.318 200.555 332.177 200.772Z" fill="white"/>
<path d="M331.623 201.94L336.501 207.208H336.688L331.677 201.764L331.623 201.94Z" fill="white"/>
</g>
</g>
<g opacity="0.9">
<path d="M325.486 205.145C325.578 205.152 325.671 205.152 325.763 205.145C327.38 205.303 329.006 203.819 329.47 201.685C329.717 200.675 329.629 199.614 329.22 198.656C329.064 198.24 328.804 197.87 328.463 197.579C328.123 197.288 327.713 197.086 327.272 196.993C326.831 196.899 326.373 196.916 325.94 197.043C325.508 197.169 325.115 197.401 324.798 197.717C324.034 198.421 323.512 199.342 323.306 200.351C322.797 202.66 323.789 204.794 325.486 205.145Z" fill="#37474F"/>
<g opacity="0.1">
<path d="M323.315 200.368L327.397 204.758C327.882 204.47 328.299 204.084 328.621 203.626L324.029 198.639C323.687 199.168 323.445 199.754 323.315 200.368Z" fill="white"/>
<path d="M325.629 197.208L329.524 201.44C329.527 201.372 329.527 201.305 329.524 201.238L325.754 197.146L325.629 197.208Z" fill="white"/>
</g>
</g>
<path d="M346.614 210.158C346.409 210.183 346.202 210.183 345.997 210.158C345.794 210.16 345.591 210.127 345.399 210.061C345.147 209.994 344.915 209.871 344.72 209.702C344.562 209.572 344.423 209.422 344.309 209.254C344.144 209.017 344.026 208.752 343.961 208.472L345.283 205.276C345.283 205.276 348.767 201.905 350.375 203.196C351.983 204.486 348.838 209.772 346.614 210.158Z" fill="#D3766A"/>
<path d="M349.419 204.714C349.419 204.714 349.419 204.767 349.419 204.776C348.68 204.982 347.994 205.339 347.404 205.823C346.815 206.307 346.335 206.908 345.997 207.586C346.111 207.456 346.251 207.352 346.409 207.28C346.567 207.209 346.739 207.172 346.913 207.172C347.087 207.172 347.259 207.209 347.417 207.28C347.575 207.352 347.716 207.456 347.829 207.586C347.829 207.586 347.829 207.665 347.766 207.656C347.524 207.527 347.246 207.476 346.973 207.509C346.699 207.542 346.442 207.658 346.239 207.84C345.909 208.154 345.609 208.498 345.345 208.867C345.256 208.982 345.033 208.867 345.113 208.727C345.426 206.857 347.373 204.574 349.419 204.714Z" fill="#263238"/>
<path d="M352.367 222.863C359.514 229.887 377.256 256.876 372.11 262.083C366.964 267.29 335.751 261.012 327.318 257.403C324.817 256.332 335.099 240.563 338.038 240.958C340.468 241.292 352.984 245.717 353.314 245.006C353.645 244.295 351.528 238.447 348.186 228.008C344.292 215.988 349.214 219.755 352.367 222.863Z" fill="#D3766A"/>
<path d="M343.47 245.7C340.156 242.419 336.472 239.521 332.491 237.06C328.614 234.839 319.636 230.914 307.951 237.341C305.173 238.869 302.323 242.969 307.772 242.1C311.64 241.476 313.9 239.94 316.223 239.984C316.223 239.984 313.221 245.62 314.883 248.29C316.333 250.627 317.951 252.86 319.725 254.971C320.19 254.737 320.64 254.476 321.074 254.19C321.074 254.19 322.861 256.543 327.327 257.412L343.47 245.7Z" fill="#D3766A"/>
<path d="M328.443 235.515C326.139 235.945 321.297 236.946 317.563 239.132C313.444 241.555 306.19 247.315 308.049 250.283C309.406 252.46 312.372 250.493 312.372 250.493C312.372 250.493 309.88 253.496 311.55 255.199C313.06 256.745 315.267 255.094 315.267 255.094C315.267 255.094 314.079 257.175 315.829 258.387C317.938 259.844 320.091 255.261 323.521 254.927C324.28 254.848 328.443 235.515 328.443 235.515Z" fill="#D3766A"/>
<path d="M320.886 242.978C317.344 244.542 314.372 247.13 312.364 250.397C312.319 250.485 312.364 250.564 312.417 250.493C314.932 247.672 317.784 245.16 320.913 243.013C320.913 243.013 320.913 242.969 320.886 242.978Z" fill="#263238"/>
<path d="M323.262 247.122C319.907 248.997 317.129 251.727 315.222 255.024C315.222 255.112 315.222 255.191 315.275 255.12C317.641 252.173 320.338 249.499 323.315 247.148C323.315 247.148 323.28 247.113 323.262 247.122Z" fill="#263238"/>
<path d="M316.241 239.94C314.373 240.001 312.531 240.388 310.8 241.081C309.858 241.401 308.898 241.665 307.924 241.871C307.03 242.056 305.726 242.337 305.11 241.459C304.979 241.206 304.92 240.923 304.941 240.64C304.961 240.357 305.06 240.084 305.226 239.852C305.686 239.187 306.246 238.595 306.887 238.096C306.887 238.096 306.887 238.035 306.887 238.052C306.27 238.506 305.701 239.021 305.19 239.589C304.85 239.981 304.639 240.464 304.583 240.976C304.583 242.073 305.726 242.565 306.673 242.539C307.243 242.503 307.808 242.415 308.361 242.275C308.888 242.152 309.416 242.003 309.943 241.845C311.015 241.511 312.06 241.125 313.132 240.783C314.163 240.471 315.213 240.225 316.276 240.045L316.241 239.94Z" fill="#263238"/>
<path d="M310.327 245.252C312.186 243.371 314.167 241.611 316.259 239.984C316.259 239.984 316.259 239.922 316.259 239.931C313.978 241.286 311.878 242.914 310.005 244.778C308.992 245.783 308.194 246.977 307.656 248.29C307.414 248.814 307.389 249.41 307.586 249.952C307.783 250.494 308.186 250.94 308.71 251.196C309.248 251.462 309.862 251.543 310.452 251.424C311.156 251.238 311.815 250.915 312.391 250.476C312.391 250.476 312.391 250.406 312.391 250.423C311.92 250.752 311.379 250.97 310.809 251.062C310.239 251.153 309.656 251.115 309.103 250.95C308.643 250.761 308.277 250.401 308.085 249.949C307.936 249.401 307.993 248.818 308.246 248.307C308.764 247.183 309.467 246.151 310.327 245.252Z" fill="#263238"/>
<path d="M341.692 241.626L332.928 261.486C332.928 261.486 370.18 268.405 373.128 261.969C376.076 255.533 360.88 231.239 354.154 224.276C346.364 216.172 345.506 219.052 347.418 226.401C349.419 234.092 353.153 245.19 353.153 245.19L341.692 241.626Z" fill="#455A64"/>
<path d="M364.588 250.019C362.828 248.912 360.989 247.932 359.085 247.087C357.201 246.256 355.257 245.563 353.269 245.015C352.144 244.69 351 244.418 349.857 244.137C349.857 244.137 349.812 244.181 349.857 244.189C351.852 244.749 353.811 245.424 355.726 246.209C357.629 246.964 359.523 247.763 361.408 248.588C362.471 249.062 363.507 249.58 364.552 250.081L364.588 250.019Z" fill="#263238"/>
<path d="M341.79 241.564C341.978 241.608 352.698 244.637 353.037 244.778C352.992 244.628 350.214 236.366 350.178 236.287C349.982 235.954 348.972 234.136 348.74 233.653C348.999 234.084 349.776 235.12 349.884 235.322C349.678 234.777 348.803 232.003 348.535 231.125C348.535 231.125 348.535 231.125 348.579 231.125C349.964 233.653 354.02 245.682 354.002 245.673C353.984 245.664 341.951 241.775 341.736 241.696C341.719 241.689 341.704 241.675 341.697 241.658C341.689 241.641 341.689 241.621 341.696 241.604C341.703 241.586 341.717 241.572 341.735 241.565C341.752 241.557 341.772 241.557 341.79 241.564Z" fill="#263238"/>
<path d="M341.558 254.339C342.513 252.118 343.46 249.896 344.515 247.719C345.104 246.481 345.694 245.234 346.301 243.996C346.301 243.996 346.408 243.996 346.391 243.996C345.497 246.261 344.604 248.527 343.648 250.748C342.692 252.969 341.71 255.182 340.7 257.377C340.104 258.635 339.494 259.868 338.869 261.073H338.824C339.619 258.799 340.584 256.569 341.558 254.339Z" fill="#263238"/>
<path d="M332.455 261.811C332.812 261.196 333.241 260.309 333.616 259.712C333.714 259.554 333.839 259.581 333.759 259.712C333.5 260.266 333.286 260.889 333.027 261.468L334.599 261.714L336.385 262.03C337.565 262.223 338.753 262.408 339.959 262.583C342.341 262.935 344.753 263.227 347.195 263.461C352.039 264 356.908 264.293 361.783 264.339C363.141 264.339 364.463 264.339 365.865 264.252C367.21 264.214 368.552 264.106 369.885 263.927C369.885 263.927 369.93 263.979 369.885 263.988C368.741 264.266 367.576 264.457 366.401 264.559C365.169 264.656 363.936 264.726 362.703 264.752C360.246 264.805 357.781 264.752 355.333 264.594C350.464 264.322 345.605 263.839 340.781 263.172C339.423 262.979 338.101 262.777 336.725 262.557L334.688 262.215C333.933 262.144 333.186 262.009 332.455 261.811Z" fill="#263238"/>
<path d="M257.896 246.858C259.97 247.915 261.857 249.29 263.489 250.932C265.713 253.347 268.545 260.871 268.545 260.871C268.545 260.871 243.04 263.426 243.112 261.556C243.183 259.686 257.896 246.858 257.896 246.858Z" fill="#263238"/>
<path d="M432.481 252.513C432.481 252.513 435.947 230.914 437.403 229.939C438.859 228.965 459.263 228.851 460.63 229.72C461.997 230.589 462.667 240.054 463.828 240.256C464.989 240.458 471.948 241.257 474.191 242.073C476.433 242.89 476.531 250.186 476.531 250.186L432.481 252.513Z" fill="#CFD8DC"/>
<path opacity="0.5" d="M432.481 252.513C432.481 252.513 435.947 230.914 437.403 229.939C438.859 228.965 459.263 228.851 460.63 229.72C461.997 230.589 462.667 240.054 463.828 240.256C464.989 240.458 471.948 241.257 474.191 242.073C476.433 242.89 476.531 250.186 476.531 250.186L432.481 252.513Z" fill="white"/>
<path d="M107.897 355.344L218.197 356.064C218.197 356.064 212.301 289.011 159.237 293.515C106.173 298.02 107.897 355.344 107.897 355.344Z" fill="#CFD8DC"/>
<path opacity="0.5" d="M107.897 355.344L218.197 356.064C218.197 356.064 212.301 289.011 159.237 293.515C106.173 298.02 107.897 355.344 107.897 355.344Z" fill="black"/>
<path d="M438.037 355.274L548.024 347.109C548.024 347.109 536.563 280.749 484.053 289.521C431.543 298.292 438.037 355.274 438.037 355.274Z" fill="#CFD8DC"/>
<path opacity="0.5" d="M438.037 355.274L548.024 347.109C548.024 347.109 536.563 280.749 484.053 289.521C431.543 298.292 438.037 355.274 438.037 355.274Z" fill="black"/>
<path opacity="0.6" d="M193.854 255.182L191.513 256.499C191.513 256.499 206.298 257.842 209.559 257.482C212.819 257.122 270.68 221.879 271.484 221.537C272.288 221.195 309.942 207.208 309.942 207.208C309.942 207.208 258.352 223.354 255.02 224.54C251.688 225.725 193.854 255.182 193.854 255.182Z" fill="white"/>
<path d="M61.1404 344.878C61.1404 344.878 72.2713 354.879 75.7285 355.809C79.1857 356.74 111.194 359.559 113.088 358.944C114.982 358.329 105.208 301.154 159.907 297.949C214.606 294.745 208.594 361.341 209.934 361.315C211.274 361.288 443.639 359.559 444.684 358.619C445.729 357.68 437.662 297.291 490.78 296.632C541.638 296 538.743 351.288 540.753 351.349C542.763 351.411 581.775 346.81 585.054 345.932C588.332 345.054 593.094 335.738 593.442 334.931C593.79 334.123 592.754 331.989 592.754 331.989C592.754 331.989 597.792 316.185 598.052 309.899C598.311 303.612 586.26 286.149 586.26 286.149L577.8 258.167C577.8 258.167 581.748 255.849 582.266 255.05C582.784 254.251 583.347 251.24 583.347 251.24L501.822 244.655C500.89 244.013 499.897 243.463 498.856 243.013C497.962 242.785 492.719 242.635 492.719 242.635C492.719 242.635 484.178 248.992 480.685 249.817C477.192 250.643 245.667 261.767 244.381 261.363C243.094 260.959 276.228 228.745 279.614 225.69C283 222.634 311.845 214.811 312.194 213.977C312.542 213.143 312.623 206.514 311.711 206.611C310.8 206.708 274.397 219.851 270.225 222.134C266.053 224.417 210.372 256.718 208.728 257.359C207.084 258 191.665 256.604 191.513 256.481C191.362 256.358 193.854 255.498 193.854 255.182C193.854 254.866 189.754 255.797 188.869 255.797C187.985 255.797 121.53 265.525 110.604 269.344C99.6788 273.163 83.3665 283.006 76.0412 289.924C68.7158 296.843 61.9712 307.379 60.7473 308.09C59.5234 308.801 56.5754 308.968 56.0573 313.56C55.5392 318.152 56.2002 322.867 57.2365 323.85C58.2728 324.834 61.6049 325.861 61.9444 326.238C62.2839 326.616 62.7305 337.652 62.5608 338.056C62.3911 338.46 61.0421 338.776 60.8992 339.751C60.7562 340.725 60.4614 343.781 61.1404 344.878Z" fill="#CFD8DC"/>
<path opacity="0.3" d="M201.179 319.592C202.455 321.997 203.557 324.488 204.475 327.046C244.675 325.808 426.995 320.101 426.638 318.363C426.281 316.624 233.276 319.109 201.179 319.592Z" fill="white"/>
<path d="M117.647 350.36C114.316 326.831 131.024 305.104 154.964 301.83C178.903 298.557 201.01 314.978 204.341 338.507C207.671 362.036 190.964 383.763 167.024 387.036C143.084 390.31 120.977 373.889 117.647 350.36Z" fill="#263238"/>
<path d="M148.17 373.229C131.997 366.288 124.611 347.775 131.674 331.879C138.737 315.983 157.573 308.725 173.746 315.666C189.919 322.607 197.305 341.12 190.242 357.016C183.18 372.911 164.344 380.17 148.17 373.229Z" fill="#DBDBDB"/>
<path d="M140.132 364.931C128.627 353.623 128.627 335.289 140.132 323.98C151.638 312.672 170.292 312.672 181.798 323.98C193.304 335.289 193.304 353.623 181.798 364.931C170.292 376.239 151.638 376.239 140.132 364.931Z" fill="#A6A6A6"/>
<path d="M166.607 337.925L157.451 336.616C161.194 332.674 152.689 315.817 152.689 315.817L157.736 314.939C160.14 320.804 161.506 322.621 164.142 322.999C166.777 323.376 168.608 322.015 172.637 317.072L177.202 319.346C177.202 319.346 164.168 333.096 166.607 337.925Z" fill="#DBDBDB"/>
<path d="M156.602 337.055L152.501 345.212C149.821 340.497 130.909 343.237 130.909 343.237L131.606 338.232C138.02 337.802 140.2 337.082 141.379 334.72C142.558 332.358 141.808 330.233 138.27 324.957L141.844 321.383C141.844 321.383 151.17 337.846 156.602 337.055Z" fill="#DBDBDB"/>
<path d="M152.662 346.134L159.291 352.491C153.931 353.518 150.706 372.061 150.706 372.061L146.079 369.866C147.642 363.72 147.624 361.481 145.712 359.655C143.801 357.829 141.514 357.855 135.305 359.541L132.965 355.063C132.965 355.063 151.751 351.455 152.662 346.134Z" fill="#DBDBDB"/>
<path d="M160.237 352.622L168.429 348.39C167.759 353.746 184.715 362.438 184.715 362.438L181.142 366.082C175.692 362.728 173.504 362.052 171.145 363.264C168.787 364.475 168.108 366.644 167.813 372.966L162.757 373.765C162.757 373.765 165.097 355.125 160.237 352.622Z" fill="#DBDBDB"/>
<path d="M168.841 347.548L167.287 338.583C172.253 340.857 185.939 327.705 185.939 327.705L188.36 332.147C183.429 336.213 182.107 338.048 182.554 340.629C183 343.21 184.876 344.51 190.906 346.775L190.12 351.753C190.12 351.753 172.772 343.772 168.841 347.548Z" fill="#DBDBDB"/>
<path d="M169.457 345.467C169.213 347.111 168.478 348.648 167.346 349.882C166.214 351.116 164.734 351.992 163.095 352.4C161.456 352.808 159.731 352.729 158.137 352.173C156.544 351.618 155.154 350.61 154.143 349.278C153.132 347.945 152.546 346.348 152.459 344.689C152.372 343.029 152.787 341.381 153.653 339.954C154.518 338.526 155.795 337.383 157.322 336.668C158.848 335.954 160.556 335.701 162.229 335.94C163.34 336.099 164.409 336.472 165.373 337.037C166.338 337.602 167.179 338.348 167.85 339.232C168.522 340.117 169.009 341.123 169.284 342.193C169.56 343.262 169.618 344.375 169.457 345.467Z" fill="#DBDBDB"/>
<path d="M469.109 380.997C448.623 368.391 442.413 341.849 455.239 321.714C468.066 301.579 495.071 295.476 515.557 308.082C536.044 320.688 542.254 347.23 529.427 367.365C516.601 387.5 489.596 393.603 469.109 380.997Z" fill="#263238"/>
<path d="M468.087 365.011C456.597 351.846 458.143 332.018 471.538 320.726C484.934 309.434 505.107 310.952 516.597 324.118C528.086 337.284 526.541 357.111 513.145 368.403C499.75 379.696 479.576 378.177 468.087 365.011Z" fill="#DBDBDB"/>
<path d="M464.065 352.699C459.49 337.352 468.44 321.266 484.055 316.769C499.67 312.273 516.038 321.069 520.613 336.416C525.188 351.763 516.238 367.85 500.623 372.346C485.008 376.843 468.641 368.046 464.065 352.699Z" fill="#A6A6A6"/>
<path d="M497.98 338.03L488.823 336.722C492.567 332.771 484.062 315.922 484.062 315.922L489.118 315.044C491.521 320.909 492.888 322.726 495.523 323.104C498.159 323.482 499.99 322.121 504.01 317.177L508.584 319.452C508.584 319.452 495.541 333.201 497.98 338.03Z" fill="#DBDBDB"/>
<path d="M487.975 337.152L483.883 345.3C481.203 340.585 462.282 343.324 462.282 343.324L462.979 338.329C469.393 337.898 471.573 337.178 472.752 334.817C473.931 332.455 473.19 330.33 469.643 325.044L473.217 321.48C473.217 321.48 482.552 337.942 487.975 337.152Z" fill="#DBDBDB"/>
<path d="M484.044 346.239L490.664 352.587C485.304 353.623 482.079 372.167 482.079 372.167L477.461 369.972C479.024 363.826 478.997 361.587 477.094 359.752C475.192 357.917 472.887 357.996 466.687 359.646L464.346 355.16C464.346 355.16 483.124 351.56 484.044 346.239Z" fill="#DBDBDB"/>
<path d="M491.61 352.728L499.802 348.496C499.141 353.852 516.097 362.544 516.097 362.544L512.523 366.187C507.074 362.834 504.885 362.157 502.527 363.369C500.169 364.581 499.49 366.749 499.204 373.027L494.147 373.835C494.147 373.835 496.479 355.221 491.61 352.728Z" fill="#DBDBDB"/>
<path d="M500.267 347.688L498.704 338.724C503.679 340.998 517.356 327.845 517.356 327.845L519.786 332.288C514.855 336.353 513.533 338.188 513.971 340.769C514.408 343.351 516.302 344.65 522.323 346.871L521.537 351.85C521.537 351.85 504.153 343.877 500.267 347.688Z" fill="#DBDBDB"/>
<path d="M500.839 345.572C500.595 347.216 499.861 348.753 498.73 349.987C497.598 351.221 496.119 352.098 494.48 352.506C492.842 352.915 491.117 352.836 489.523 352.281C487.93 351.726 486.54 350.72 485.528 349.388C484.517 348.057 483.93 346.461 483.841 344.801C483.753 343.142 484.167 341.494 485.031 340.066C485.895 338.638 487.171 337.494 488.697 336.778C490.222 336.063 491.93 335.808 493.603 336.046C495.846 336.369 497.867 337.554 499.224 339.339C500.58 341.125 501.161 343.366 500.839 345.572Z" fill="#DBDBDB"/>
<path d="M578.157 259.423C581.248 260.301 587.251 268.519 587.546 270.125C587.841 271.732 588.252 282.303 586.992 283.691C585.733 285.078 581.409 288.344 578.157 288.01C574.906 287.677 554.35 278.106 553.144 276.596C551.938 275.086 552.018 267.228 554.037 264.98C556.056 262.733 574.218 258.343 578.157 259.423Z" fill="white"/>
<path d="M553.117 276.64C554.35 278.115 574.905 287.677 578.13 288.01C580.605 288.265 583.714 286.412 585.599 284.911C583.017 286.052 580.703 286.386 578.988 285.965C577.273 285.543 557.548 277.264 555.913 275.288C554.278 273.313 555.145 266.851 555.565 265.727C555.985 264.603 572.386 259.581 572.386 259.581C564.989 260.239 555.413 263.47 554.019 264.989C552 267.263 551.884 275.156 553.117 276.64Z" fill="#EBEBEB"/>
<path d="M117.876 280.67C115.661 285.736 95.4444 297.063 87.6277 299.512C82.7055 301.057 65.3748 304.666 64.2313 303.902C63.0879 303.138 69.7879 290.46 73.7275 287.036C77.6671 283.612 98.4191 273.278 105.066 272.619C111.712 271.961 120.118 275.552 117.876 280.67Z" fill="white"/>
<path d="M64.2224 303.92C65.3748 304.675 82.6965 301.057 87.6277 299.53C95.4444 297.071 115.661 285.754 117.885 280.679C120.109 275.604 111.712 272.004 105.066 272.654C104.548 272.705 104.035 272.79 103.529 272.909C110.006 274.243 111.971 278.783 108.63 282.022C105.289 285.262 94.2473 293.296 89.6466 295.307C85.18 297.247 68.3943 302.374 66.7416 301.453C66.406 301.162 66.1405 300.802 65.9643 300.398C65.7881 299.994 65.7058 299.556 65.7232 299.117C64.4904 301.637 63.7936 303.639 64.2224 303.92Z" fill="#EBEBEB"/>
<g opacity="0.1">
<path d="M113.454 351.27C113.347 355.836 113.517 358.803 113.088 358.944C111.194 359.559 79.1948 356.758 75.7287 355.809C72.2625 354.861 61.1405 344.87 61.1405 344.87C61.1405 344.87 61.0869 344.782 61.069 344.729C72.7123 348.565 84.8464 350.773 97.1151 351.288C99.3484 351.367 105.003 351.358 113.454 351.27Z" fill="black"/>
<path d="M445.176 344.273C444.506 352.385 445.051 358.321 444.729 358.619C443.693 359.585 211.346 361.253 209.988 361.315C209.622 361.315 209.791 356.538 209.175 349.593C280.141 348.136 371.762 346.046 445.176 344.273Z" fill="black"/>
<path d="M593.442 334.957C593.094 335.765 588.341 345.107 585.054 345.958C581.766 346.81 542.826 351.42 540.816 351.358C540.289 351.358 540.092 347.539 539.181 341.937C552.07 341.58 564.925 340.454 577.675 338.566C583.095 337.391 588.222 335.164 592.754 332.016C592.754 332.016 593.79 334.158 593.442 334.957Z" fill="black"/>
</g>
<g opacity="0.2">
<path d="M228.051 349.198C228.051 335.826 227.595 316.379 227.336 302.805C227.238 298.941 227.14 295.078 227.086 291.215C227.003 290.552 227.064 289.878 227.265 289.24C230.356 283.541 240.87 267.131 244.381 261.363C238.905 269.388 233.491 277.466 228.372 285.728C227.693 287.009 226.586 288.309 226.291 289.722C226.398 309.565 227.184 329.382 228.078 349.198H228.051Z" fill="black"/>
<path d="M394.514 254.444L397.346 265.56C398.337 270.161 400.026 274.796 400.142 279.494C399.642 295.842 399.159 317.511 398.98 333.93L398.927 345.388L399.418 333.974C399.981 318.723 400.553 297.633 400.83 282.417C400.83 280.732 401.035 278.291 400.606 276.64C398.945 269.142 396.738 261.82 394.514 254.497V254.444Z" fill="black"/>
<path d="M529.175 314.649C537.135 310.645 544.987 306.44 552.679 301.944C554.032 301.066 555.222 299.968 556.199 298.696C557.574 297.133 558.95 295.561 560.263 293.946C562.943 290.732 565.516 287.492 568.026 284.173L563.863 288.827C560.719 292.277 556.538 297.405 553.188 300.618C545.246 305.377 537.108 309.802 529.175 314.666V314.649Z" fill="black"/>
<path d="M118.528 277.448C139.584 274.814 160.953 271.996 181.901 268.545C191.013 265.174 199.821 261.214 208.701 257.386C204.52 258.966 185.475 266.561 181.678 267.808C161.801 270.907 138.307 274.12 118.501 277.466L118.528 277.448Z" fill="black"/>
<path d="M360.907 281.373C361.47 283.278 362.22 285.64 364.203 286.544C366.872 286.835 369.562 286.903 372.243 286.746C374.914 286.697 377.576 286.433 380.203 285.956C380.516 285.889 380.817 285.776 381.096 285.622C382.472 284.384 382.99 282.602 383.553 280.934C382.793 282.4 382.061 284.121 380.774 285.166C380.259 285.33 379.725 285.433 379.184 285.473C374.548 285.85 369.804 285.991 365.15 286.017C364.624 286.078 364.094 285.933 363.676 285.613C362.432 284.424 361.476 282.975 360.88 281.373H360.907Z" fill="black"/>
<path d="M360.746 278.387C361.202 276.825 361.738 274.875 363.069 273.918C363.612 273.769 364.168 273.672 364.731 273.629C368.295 273.318 371.875 273.233 375.451 273.374C377.871 273.374 380.06 273.822 381.757 275.622C382.634 276.401 383.376 277.314 383.955 278.326C383.509 277.215 382.854 276.197 382.026 275.323C381.219 274.392 380.216 273.643 379.086 273.128C377.904 272.785 376.683 272.587 375.451 272.54C371.839 272.311 368.214 272.453 364.632 272.961C364.003 273.051 363.385 273.21 362.792 273.436C361.291 274.647 361.005 276.64 360.746 278.387Z" fill="black"/>
<path d="M361.479 278.203C357.79 278.993 358.022 281.118 361.711 281.557C366.33 282.005 370.975 281.943 375.603 281.961C378.461 281.759 381.624 282.312 384.366 281.083C385.751 280.416 386.153 278.905 384.554 278.15C381.633 277.035 378.372 277.624 375.344 277.501C370.713 277.509 366.086 277.746 361.479 278.212V278.203ZM361.479 278.203C368.331 277.466 375.37 277.861 382.231 278.335C383.366 278.431 386.055 279.213 383.955 280.319C382.455 281.074 380.739 280.925 379.051 281.057C373.316 281.259 367.438 281.733 361.729 281.434C358.076 281.109 357.816 279.028 361.479 278.203Z" fill="black"/>
</g>
<path d="M61.9349 326.238C61.9349 326.238 82.7674 328.056 83.0265 327.994C83.2855 327.933 83.9198 325.115 85.6618 325.036C87.4038 324.957 93.4517 330.031 94.4165 334.913C95.3813 339.795 94.2467 343.456 91.0932 343.087C87.9398 342.719 83.6339 336.45 83.6339 336.45C83.6339 336.45 67.6433 335.572 67.2591 335.861C66.6173 336.428 65.9335 336.948 65.2134 337.415C64.3429 337.712 63.4455 337.927 62.5334 338.056L61.9349 326.238Z" fill="#263238"/>
<path d="M259.782 270.503C261.193 268.422 257.843 252.943 256.298 251.916C254.752 250.889 236.957 253.25 237.538 263.172C238.118 273.093 257.584 273.76 259.782 270.503Z" fill="#CFD8DC"/>
<path opacity="0.1" d="M259.782 270.503C261.193 268.422 257.843 252.943 256.298 251.916C254.752 250.889 236.957 253.25 237.538 263.172C238.118 273.093 257.584 273.76 259.782 270.503Z" fill="black"/>
<g opacity="0.4">
<path d="M438.261 321.848C442.915 307.195 454.019 294.569 468.482 288.634C485.321 281.987 505.815 282.163 521.376 291.944C530.966 298.119 538.437 306.993 542.816 317.406C540.929 312.058 538.191 307.038 534.705 302.532C519.581 282.514 492.915 277.948 469.92 286.421C454.287 292.146 442.227 306.115 438.305 321.866L438.261 321.848Z" fill="white"/>
<path d="M107.29 322.814C111.944 308.152 123.048 295.526 137.511 289.591C154.351 282.944 174.844 283.129 190.406 292.91C199.997 299.083 207.469 307.957 211.846 318.372C209.944 313.012 207.188 307.982 203.681 303.472C188.556 283.462 161.89 278.888 138.896 287.361C123.263 293.085 111.203 307.063 107.281 322.814H107.29Z" fill="white"/>
<path d="M260.389 280.96C330.337 278.326 400.991 274.507 470.805 269.546C400.857 272.18 330.203 276.008 260.389 280.96Z" fill="white"/>
</g>
</svg>
